<svg version="1.2" baseProfile="tiny-ps" xmlns="http://www.w3.org/2000/svg" viewBox="0 0 2416 2816" width="2416" height="2816">
	<title>20944428-ai</title>
	<defs>
		<linearGradient id="grd1" gradientUnits="userSpaceOnUse"  x1="1632.8" y1="-1175.1" x2="2553.5" y2="2020.2">
			<stop offset="0" stop-color="#09005d"  />
			<stop offset="1" stop-color="#1a0f91"  />
		</linearGradient>
		<linearGradient id="grd2" gradientUnits="userSpaceOnUse"  x1="1427.2" y1="-1115.5" x2="2347.9" y2="2079.8">
			<stop offset="0" stop-color="#09005d"  />
			<stop offset="1" stop-color="#1a0f91"  />
		</linearGradient>
		<linearGradient id="grd3" gradientUnits="userSpaceOnUse"  x1="1869.5" y1="-505.8" x2="1869.5" y2="108.6">
			<stop offset="0" stop-color="#4f52ff"  />
			<stop offset="1" stop-color="#4042e2"  />
		</linearGradient>
		<linearGradient id="grd4" gradientUnits="userSpaceOnUse"  x1="1543.6" y1="24.6" x2="2505.2" y2="-1046.7">
			<stop offset="0" stop-color="#4f52ff"  />
			<stop offset="1" stop-color="#4042e2"  />
		</linearGradient>
		<linearGradient id="grd5" gradientUnits="userSpaceOnUse"  x1="1507.6" y1="1025.2" x2="1842.5" y2="1025.2">
			<stop offset="0" stop-color="#4f52ff"  />
			<stop offset="1" stop-color="#4042e2"  />
		</linearGradient>
		<linearGradient id="grd6" gradientUnits="userSpaceOnUse"  x1="2152.2" y1="575.5" x2="3086.3" y2="-465.3">
			<stop offset="0" stop-color="#4f52ff"  />
			<stop offset="1" stop-color="#4042e2"  />
		</linearGradient>
		<linearGradient id="grd7" gradientUnits="userSpaceOnUse"  x1="-26" y1="587.4" x2="991.5" y2="-744.9">
			<stop offset="0" stop-color="#ff928e"  />
			<stop offset="1" stop-color="#fe7062"  />
		</linearGradient>
		<linearGradient id="grd8" gradientUnits="userSpaceOnUse"  x1="527.6" y1="897.2" x2="527.6" y2="197.2">
			<stop offset="0" stop-color="#09005d"  />
			<stop offset="1" stop-color="#1a0f91"  />
		</linearGradient>
		<linearGradient id="grd9" gradientUnits="userSpaceOnUse"  x1="-928" y1="3726" x2="-526.9" y2="2837.5">
			<stop offset="0" stop-color="#ff928e"  />
			<stop offset="1" stop-color="#fe7062"  />
		</linearGradient>
		<linearGradient id="grd10" gradientUnits="userSpaceOnUse"  x1="-891.3" y1="3742.6" x2="-490.2" y2="2854.1">
			<stop offset="0" stop-color="#ff928e"  />
			<stop offset="1" stop-color="#fe7062"  />
		</linearGradient>
		<linearGradient id="grd11" gradientUnits="userSpaceOnUse"  x1="-854.6" y1="3759.2" x2="-453.5" y2="2870.7">
			<stop offset="0" stop-color="#ff928e"  />
			<stop offset="1" stop-color="#fe7062"  />
		</linearGradient>
		<linearGradient id="grd12" gradientUnits="userSpaceOnUse"  x1="-817.9" y1="3775.7" x2="-416.8" y2="2887.3">
			<stop offset="0" stop-color="#ff928e"  />
			<stop offset="1" stop-color="#fe7062"  />
		</linearGradient>
		<linearGradient id="grd13" gradientUnits="userSpaceOnUse"  x1="-781.2" y1="3792.3" x2="-380.1" y2="2903.8">
			<stop offset="0" stop-color="#ff928e"  />
			<stop offset="1" stop-color="#fe7062"  />
		</linearGradient>
		<linearGradient id="grd14" gradientUnits="userSpaceOnUse"  x1="-744.5" y1="3808.9" x2="-343.4" y2="2920.4">
			<stop offset="0" stop-color="#ff928e"  />
			<stop offset="1" stop-color="#fe7062"  />
		</linearGradient>
	</defs>
	<style>
		tspan { white-space:pre }
		.s0 { fill: #ffffff } 
		.s1 { fill: url(#grd1) } 
		.s2 { fill: url(#grd2) } 
		.s3 { fill: url(#grd3) } 
		.s4 { fill: url(#grd4) } 
		.s5 { fill: url(#grd5) } 
		.s6 { fill: url(#grd6) } 
		.s7 { fill: #91b3fa } 
		.s8 { fill: url(#grd7) } 
		.s9 { fill: url(#grd8) } 
		.s10 { fill: url(#grd9) } 
		.s11 { fill: url(#grd10) } 
		.s12 { fill: url(#grd11) } 
		.s13 { fill: url(#grd12) } 
		.s14 { fill: url(#grd13) } 
		.s15 { fill: url(#grd14) } 
	</style>
	<g id="Background">
		<g id="&lt;Group&gt;">
			<g id="&lt;Group&gt;">
				<path id="&lt;Path&gt;" class="s0" d="m3182 3221h-3710v-3710h3710v3710z" />
			</g>
		</g>
	</g>
	<g id="Illustration">
		<g id="&lt;Group&gt;">
			<g id="&lt;Group&gt;">
				<path id="&lt;Path&gt;" class="s1" d="m2223.19 2749.24h-1086.38c-72.23 0-129.96-60.06-127.11-132.23l54.42-1376.65c2.7-68.25 58.81-122.18 127.11-122.18h992.01c68.82 0 125.16 54.73 127.16 123.52l39.95 1376.65c2.08 71.67-55.45 130.9-127.15 130.9z" />
				<path id="&lt;Path&gt;" class="s2" d="m2042.26 1074.64v116.35h-724.51v-116.35c0-48.34 39.19-87.53 87.53-87.53h0c28.54 0 52.73-21.01 56.72-49.28l57.81-409.46h320.39l57.81 409.46c3.99 28.26 28.18 49.28 56.72 49.28h0c48.34 0 87.53 39.19 87.53 87.53z" />
				<path id="&lt;Path&gt;" class="s3" d="m1859.69 597.54h-359.37c-4.32 0-7.81-3.5-7.81-7.81v-104.52c0-4.32 3.5-7.81 7.81-7.81h359.37c4.32 0 7.81 3.5 7.81 7.81v104.52c0 4.32-3.5 7.81-7.81 7.81z" />
				<path id="&lt;Path&gt;" class="s4" d="m1860.18 477.39h-359.37c-4.32 0-7.81-3.5-7.81-7.81v-381.22c0-4.32 3.5-7.81 7.81-7.81h359.37c4.32 0 7.81 3.5 7.81 7.81v381.22c0 4.32-3.5 7.81-7.81 7.81z" />
				<path id="&lt;Path&gt;" class="s5" d="m1842.51 1194.63c0 92.49-74.98 167.48-167.48 167.48c-92.49 0-167.48-74.98-167.48-167.48c0-92.49 74.98-167.48 167.48-167.48c92.49 0 167.48 74.98 167.48 167.48z" />
				<path id="&lt;Path&gt;" class="s6" d="m2072.82 2305.06h-795.79c-32.96 0-59.13-27.73-57.22-60.63l37.04-639.01c1.76-30.31 26.85-54 57.22-54h758.74c31.65 0 57.31 25.66 57.31 57.31v639.01c0 31.65-25.66 57.31-57.31 57.31z" />
				<path id="&lt;Path&gt;" class="s7" d="m1108.77 1697c-0.14 0-0.27-0.02-0.4-0.05c-1.85-0.5-2.18-0.59 0.68-55.04c1.56-29.74 4-72.13 7.24-126c5.91-98.23 13.18-212.67 16.99-272.13c1.79-27.93 24.24-49.41 52.22-49.99l130.88-2.67c0.97 0.01 1.71 0.72 1.73 1.66c0.02 0.94-0.72 1.71-1.66 1.73l-130.88 2.67c-26.21 0.54-47.24 20.66-48.91 46.82c-17.38 271.53-27.17 439.04-26.32 450.36c0.29 0.48 0.34 1.1 0.07 1.64c-0.3 0.6-0.97 1.01-1.63 1.01z" />
				<path id="&lt;Path&gt;" class="s7" d="m1971.76 2661.73c-0.9 0-1.65-0.7-1.69-1.61c-0.05-0.93 0.67-1.73 1.61-1.77l248.55-12.12c27.11-1.32 47.87-23.61 47.26-50.75l-20.72-918.41c-0.02-0.93 0.72-1.71 1.65-1.73c1-0.01 1.71 0.72 1.73 1.65l20.72 918.41c0.65 28.98-21.52 52.79-50.48 54.21l-248.55 12.12c-0.03 0-0.06 0-0.08 0z" />
				<path id="&lt;Compound Path&gt;" fill-rule="evenodd" class="s7" d="m2020.33 2228.48h-652.95c-13.86 0-26.74-5.54-36.26-15.61c-9.52-10.06-14.35-23.23-13.58-37.06l27.44-496.99c1.46-26.45 23.35-47.17 49.84-47.17h610.26c27.15 0 49.06 21.25 49.89 48.39l15.25 496.99c0.42 13.62-4.58 26.5-14.06 36.28c-9.48 9.78-22.21 15.16-35.83 15.16zm-625.51-593.44c-24.69 0-45.1 19.31-46.46 43.97l-27.44 497c-0.71 12.9 3.78 25.17 12.66 34.55c8.88 9.38 20.88 14.55 33.8 14.55h652.95c12.7 0 24.56-5.02 33.4-14.14c8.84-9.12 13.5-21.13 13.11-33.82l-15.25-496.99c-0.78-25.29-21.2-45.11-46.51-45.11h-610.26zm-75.59 540.87h0.03h-0.03z" />
				<path id="&lt;Path&gt;" class="s7" d="m1545.79 419.01c-0.94 0-1.69-0.76-1.69-1.69v-283.98c0-0.94 0.76-1.69 1.69-1.69c0.94 0 1.69 0.76 1.69 1.69v283.98c0 0.94-0.76 1.69-1.69 1.69z" />
				<path id="&lt;Path&gt;" class="s7" d="m1596.76 419.01c-0.94 0-1.69-0.76-1.69-1.69v-283.98c0-0.94 0.76-1.69 1.69-1.69c0.94 0 1.69 0.76 1.69 1.69v283.98c0 0.94-0.76 1.69-1.69 1.69z" />
				<path id="&lt;Path&gt;" class="s7" d="m1647.73 419.01c-0.94 0-1.69-0.76-1.69-1.69v-283.98c0-0.94 0.76-1.69 1.69-1.69c0.94 0 1.69 0.76 1.69 1.69v283.98c0 0.94-0.76 1.69-1.69 1.69z" />
				<path id="&lt;Path&gt;" class="s7" d="m1698.7 419.01c-0.94 0-1.69-0.76-1.69-1.69v-283.98c0-0.94 0.76-1.69 1.69-1.69c0.94 0 1.69 0.76 1.69 1.69v283.98c0 0.94-0.76 1.69-1.69 1.69z" />
				<path id="&lt;Path&gt;" class="s7" d="m1749.67 419.01c-0.94 0-1.69-0.76-1.69-1.69v-283.98c0-0.94 0.76-1.69 1.69-1.69c0.94 0 1.69 0.76 1.69 1.69v283.98c0 0.94-0.76 1.69-1.69 1.69z" />
				<path id="&lt;Path&gt;" class="s7" d="m1800.64 419.01c-0.94 0-1.69-0.76-1.69-1.69v-283.98c0-0.94 0.76-1.69 1.69-1.69c0.94 0 1.69 0.76 1.69 1.69v283.98c0 0.94-0.76 1.69-1.69 1.69z" />
				<path id="&lt;Path&gt;" class="s7" d="m1837.05 419.01c-0.94 0-1.69-0.76-1.69-1.69v-283.98c0-0.94 0.76-1.69 1.69-1.69c0.94 0 1.69 0.76 1.69 1.69v283.98c0 0.94-0.76 1.69-1.69 1.69z" />
			</g>
			<g id="&lt;Group&gt;">
				<path id="&lt;Path&gt;" class="s8" d="m1441.81 289.44c-20.69 36.84-26.44 79.96-31.5 121.91c-5.05 41.95-10.12 85.04-29.71 122.48c-19.59 37.44-57.35 68.55-99.59 67.4c-54.81-1.49-96.33-53.92-150.53-62.21c-59.14-9.04-113.44 37.66-142.24 90.1c-28.81 52.44-41.51 112.65-71.53 164.4c-51.22 88.28-146.62 141.59-242.64 176.17c-84.7 30.51-174.92 49.91-264.61 42.23c-89.69-7.68-179.06-44.59-238.31-112.37c-54.88-62.77-80.2-146.97-86.43-230.12c-11.1-148.07 37.18-301.86 139.33-409.62c102.16-107.76 258.75-164.59 404.61-136.77c35.08 6.69 69.86 18.27 98.7 39.33c36.57 26.7 60.94 66.43 89.73 101.38c12.31 14.94 26.5 29.74 45.08 35.17c14.05 4.1 29.08 2.37 43.54 0.09c35.56-5.61 70.86-14.36 106.86-14.69c36-0.34 73.88 8.92 99.42 34.29c29.16 28.97 37.47 73.54 64.57 104.45c34.34 39.16 98.52 47.69 141.9 18.87c73.58-48.89 67.14-167.76 136.73-222.19c17.67-13.82 113.62-34.45 93.04-9.36c-8.1 9.88-47.24 17.41-60.7 27.4c-18.6 13.8-34.37 31.47-45.71 51.67z" />
				<g id="&lt;Group&gt;">
					<path id="&lt;Compound Path&gt;" fill-rule="evenodd" class="s9" d="m840.47 499.45c0 83.34-36.61 146.59-95.47 188.53c-19.87 14.15-31.8 36.92-31.8 61.31v96.5c0 28.38-23 51.38-51.38 51.38h-268.45c-28.38 0-51.38-23.01-51.38-51.38v-96.5c0-24.39-11.93-47.16-31.8-61.31c-58.87-41.93-95.47-105.19-95.47-188.53c0-163.04 140.08-302.27 312.88-302.27c172.8 0 312.88 139.24 312.88 302.27zm-380.05 8.84c0-41-19.1-74.24-60.1-74.24c-41 0-88.38 33.24-88.38 74.24c0 41 33.24 74.24 74.24 74.24c41 0 74.24-33.24 74.24-74.24zm50.05 110.16c-16.89 7.83-53.27 27.02-50.87 46.22c2.92 23.35 49.54 2.99 58.06-40.61c0.8-4.09-3.4-7.36-7.18-5.61zm34.24 0c-3.78-1.75-7.98 1.52-7.18 5.61c8.52 43.6 55.14 63.96 58.06 40.61c2.4-19.2-33.98-38.39-50.87-46.22zm198.54-106.62c0-41-47.38-74.24-88.38-74.24c-41 0-60.1 33.24-60.1 74.24c0 41 33.24 74.24 74.24 74.24c41 0 74.24-33.24 74.24-74.24z" />
					<path id="&lt;Path&gt;" class="s10" d="m417.04 884.8c-1.95 0-3.54-1.58-3.54-3.54v-120.2c0-1.95 1.58-3.54 3.54-3.54c1.95 0 3.54 1.58 3.54 3.54v120.2c0 1.95-1.58 3.54-3.54 3.54z" />
					<path id="&lt;Path&gt;" class="s11" d="m461.24 884.8c-1.95 0-3.54-1.58-3.54-3.54v-120.2c0-1.95 1.58-3.54 3.54-3.54c1.95 0 3.54 1.58 3.54 3.54v120.2c0 1.95-1.58 3.54-3.54 3.54z" />
					<path id="&lt;Path&gt;" class="s12" d="m505.43 884.8c-1.95 0-3.54-1.58-3.54-3.54v-120.2c0-1.95 1.58-3.54 3.54-3.54c1.95 0 3.54 1.58 3.54 3.54v120.2c0 1.95-1.58 3.54-3.54 3.54z" />
					<path id="&lt;Path&gt;" class="s13" d="m549.62 884.8c-1.95 0-3.54-1.58-3.54-3.54v-120.2c0-1.95 1.58-3.54 3.54-3.54c1.95 0 3.54 1.58 3.54 3.54v120.2c0 1.95-1.58 3.54-3.54 3.54z" />
					<path id="&lt;Path&gt;" class="s14" d="m593.81 884.8c-1.95 0-3.54-1.58-3.54-3.54v-120.2c0-1.95 1.58-3.54 3.54-3.54c1.95 0 3.54 1.58 3.54 3.54v120.2c0 1.95-1.58 3.54-3.54 3.54z" />
					<path id="&lt;Path&gt;" class="s15" d="m638 884.8c-1.95 0-3.54-1.58-3.54-3.54v-120.2c0-1.95 1.58-3.54 3.54-3.54c1.95 0 3.54 1.58 3.54 3.54v120.2c0 1.95-1.58 3.54-3.54 3.54z" />
				</g>
			</g>
		</g>
	</g>
</svg>