<svg version="1.2" baseProfile="tiny-ps" xmlns="http://www.w3.org/2000/svg" viewBox="0 0 1494 1854" width="1494" height="1854">
	<title>Path 699</title>
	<defs>
		<clipPath clipPathUnits="userSpaceOnUse" id="cp1">
			<path d="m111.46 1826.87c-16.1-214.38-9.81-233.18-22.39-541.79c-2.01-47.81-22.46-308.8-22.46-356.67c-0.57-65.99-23.46-301.06-32.02-397.8c153.74-13.71 275.46-24.03 404.16-27.55c53.47 438.15 95.43 877.45 125.87 1317.9c0.38 4.78-465.8 25.41-453.16 5.91z" />
		</clipPath>
		<clipPath clipPathUnits="userSpaceOnUse" id="cp2">
			<path d="m1487.29 1798.25c-43.15 11.07-383.02 1.2-482.28 4.65c16.1-304.14 3.59-594.19 15.98-898.52c123.73 13.78 425.8-21.32 425.99-13.71c7.11 289.36 12.58 619.67 40.32 907.58z" />
		</clipPath>
	</defs>
	<style>
		tspan { white-space:pre }
		.s0 { fill: #f0e7d6 } 
		.s1 { fill: #d3ccc1 } 
		.s2 { fill: #3c5267 } 
		.s3 { fill: #4f1a02 } 
		.s4 { fill: #fdaf27 } 
		.s5 { fill: #fc9c29 } 
		.s6 { fill: #ffbf94 } 
		.s7 { fill: #ffffff } 
		.s8 { fill: #4d6883 } 
		.s9 { fill: #84a3bc } 
		.s10 { fill: #fc906b } 
	</style>
	<g id="Carpeta 1">
		<path id="Path 699" class="s0" d="m111.46 1826.87c-16.1-214.38-9.81-233.18-22.39-541.79c-2.01-47.81-22.46-308.8-22.46-356.67c-0.57-65.99-23.46-301.06-32.02-397.8c153.74-13.71 275.46-24.03 404.16-27.55c53.47 438.15 95.43 877.45 125.87 1317.9c0.38 4.78-465.8 25.41-453.16 5.91z" />
		<g id="Mask" clip-path="url(#cp1)">
			<path id="Path 701" class="s1" d="m13.96 594.83c-3.82 2.22-8.72 0.93-10.95-2.89c-2.22-3.82-0.93-8.72 2.89-10.95c24.03-14.09 52.78-10.44 79.57-11.89c42.27-2.2 84.48-6.16 126.81-8.49c86.87-4.59 174.06-17.8 260.93-18.87c4.15 0.37 7.34 3.85 7.34 8.02c0 4.17-3.19 7.65-7.34 8.02c-82.91 0.94-166 13.78-248.85 18.43c-40.13 2.2-80.27 4.72-120.4 7.86c-28.43 2.2-64.85-3.84-90.02 11.01l0-0.25zm-42.46 45.92c-9.56 3.9-13.65-11.57-4.28-15.47c38.56-15.91 83.98-13.46 124.99-15.91c53.78-3.08 107.44-5.66 161.47-5.66c54.03 0 108.01 0.31 162.04-1.38c37.11-0.94 78.94-9.18 115.18 1.38c4.33 1.13 6.92 5.55 5.79 9.88c-1.13 4.33-5.55 6.92-9.88 5.79c-37.68-10.95-84.61-1.2-123.35-0.5c-49.88 0.82-99.7 0.44-149.59 0.82c-49.69 0.42-99.39 2.08-149.08 4.97c-43.15 2.58-92.66-0.63-133.1 16.1h-0.19zm-1.51 60.58c0-4.41 3.58-7.99 7.99-7.99c47.3-0.69 95.24-13.15 142.54-18.24c48.69-5.28 97.5-9.31 146.38-12.58c101.46-6.92 202.93-7.55 304.64-7.55c4.15 0.37 7.34 3.85 7.34 8.02c0 4.17-3.19 7.65-7.34 8.02c-101.65-0.06-203.18 0.44-304.64 7.49c-48.88 3.33-97.75 6.98-146.38 12.58c-47.3 5.66-94.92 17.55-142.54 18.24c-4.41 0-7.99-3.58-7.99-7.99zm54.85 46.36c-10.19 1.26-10.06-14.78 0-15.98c86.24-10.44 173.3-16.23 260.04-18.87c94.36-3.15 188.71 5.66 283.07 6.29c4.15 0.37 7.34 3.85 7.34 8.02c0 4.17-3.19 7.65-7.34 8.02c-94.36-0.44-188.71-9.5-283.07-6.29c-86.81 2.96-173.74 8.37-260.04 18.87l0-0.06zm-34.28 70.26c-4.26 1.18-8.66-1.31-9.84-5.57c-1.18-4.26 1.31-8.66 5.57-9.84c28.31-8.18 58.44-0.57 87.5-2.39c35.04-2.14 69.51-6.73 104.23-10.38c50.07-5.28 99.83-3.33 150.15-6.73c60.7-4.15 121.15-10.5 181.79-15.35c36.92-2.77 78.57-10.13 115.43-2.77c10.13 2.08 5.79 17.49-4.28 15.47c-39.5-8.05-86.18 1.13-125.81 4.53c-55.67 4.78-111.28 10.5-167.07 14.09c-50.13 3.27-99.83 1.32-150.15 6.73c-32.08 3.65-64.22 7.93-96.49 9.94c-29.44 1.82-62.72-5.85-91.02 2.26l0 0zm10.69 74.98c-4.41 0-7.99-3.58-7.99-7.99c0-4.41 3.58-7.99 7.99-7.99c82.53-0.38 164.75-8.05 247.21-9.06c84.29-1.07 168.39 3.02 252.5 2.77c4.15 0.37 7.34 3.85 7.34 8.02c0 4.17-3.19 7.65-7.34 8.02c-84.1 0.38-168.21-4.34-252.37-2.7c-82.47 1.64-164.68 9.06-247.21 9.06l-0.13-0.13zm23.78 41.96c-4.1 0.73-8.08-1.79-9.18-5.81c-1.09-4.02 1.06-8.21 4.96-9.66c76.18-20.7 160.28-22.27 239.03-25.16c81.78-3.02 163.55-0.57 245.33-0.57c4.15 0.37 7.34 3.85 7.34 8.02c0 4.17-3.19 7.65-7.34 8.02c-81.78-0.19-163.55-3.08-245.33 0.5c-77.43 3.77-159.96 4.65-235.01 25.16l0.19-0.5zm-25.79 62.21c-9.5 3.96-13.65-11.51-4.28-15.41c41.58-17.42 94.36-12.71 138.39-15.22c50.32-2.77 100.65-7.74 150.97-10.5c54.1-2.83 108.82-5.54 162.98-4.15c50.64 1.32 101.15 6.29 151.91 6.29c4.41 0 7.99 3.58 7.99 7.99c0 4.41-3.58 7.99-7.99 7.99c-101.15 0-200.98-8.24-302.44-2.58c-49.88 2.77-100.21 7.67-150.53 10.5c-46.36 2.7-103.6-2.77-147.01 15.29l0-0.19zm36.23 85.86c-10.19 1.32-10.06-14.72 0-15.98c100.65-12.9 200.16-28.31 301.94-32.46c100.02-3.84 200.1-3.84 300.18-3.84c4.41 0 7.99 3.58 7.99 7.99c0 4.41-3.58 7.99-7.99 7.99c-104.23 0-208.59-0.69-312.7 4.4c-97.31 4.84-192.74 19.31-289.36 31.89l-0.06 0zm-25.54 100.39c-10.32 0.44-10.32-15.6 0-16.04c90.39-4.34 179.53-31.14 268.41-42.08c88.88-10.95 178.21-16.04 267.47-7.05c10.19 1.07 10.32 17.05 0 16.04c-96.37-9.69-193.56-3.65-289.36 9.94c-82.28 11.7-163.3 35.35-246.52 39.19h0zm-2.14 49.38c-10.19 1.38-10.06-14.66 0-15.98c204.69-27.3 410.32-48.69 617.02-49.13c4.16 0.37 7.34 3.85 7.34 8.02c0 4.17-3.19 7.65-7.34 8.02c-206.7 0.44-412.33 21.76-617.02 49.07h0zm14.91 48.5c-9.56 3.9-13.65-11.57-4.21-15.41c40.51-16.42 93.92-10.13 136.75-10.13c57.18-0.25 114.17 2.33 171.22 3.96c112.98 3.27 225.7 3.71 338.93 3.71c4.16 0.37 7.34 3.85 7.34 8.02c0 4.17-3.19 7.65-7.34 8.02c-112.98 0-225.7-0.25-338.93-3.71c-53.03-1.64-106.06-4.03-159.08-4.03c-44.47 0.25-102.97-7.42-144.68 9.56h0zm10.69 51.08c-10-2.39-5.79-17.8 4.28-15.47c96.43 22.96 203.12 11.51 301.56 9.88c105.93-1.76 211.8-6.6 317.6-12.27c10.32-0.57 10.32 15.47 0 16.04c-110.14 6.29-220.16 11.32-330.31 12.58c-96.43 1.13-198.78 11.95-293.13-10.57l0-0.19zm-2.14 64.54c-4.16-0.37-7.34-3.85-7.34-8.02c0-4.17 3.19-7.65 7.34-8.02c119.52 0.38 239.03-4.21 358.55-2.7c123.1 1.51 246.27 0.57 369.43 0.57c4.15 0.37 7.34 3.85 7.34 8.02c0 4.17-3.19 7.65-7.34 8.02c-123.17 0-246.33 1.07-369.43-0.63c-119.52-1.64-239.03 2.77-358.55 2.77l0 0zm14.97 50.64c-10.19-1.64-5.85-17.05 4.28-15.47c102.78 16.54 210.92-9.56 313.77-17.11c103-8.32 206.42-10.42 309.68-6.29c10.25 0.44 10.32 16.48 0 15.98c-111.53-4.32-223.23-1.46-334.4 8.55c-96.87 7.86-196.26 30.19-293.32 14.66l0-0.31zm19.19 43.15c-4.02 0.57-7.83-1.93-8.9-5.85c-1.07-3.91 0.94-8.01 4.69-9.56c44.16-11.01 96.37-5.1 141.72-6.29c53.34-1.38 106.69-3.02 159.9-6.29c112.98-7.11 225.64-17.24 338.86-19.69c4.41 0 7.99 3.58 7.99 7.99c0 4.41-3.58 7.99-7.99 7.99c-109.01 2.33-217.52 12.27-326.28 18.87c-53.47 3.27-106.87 5.41-160.4 6.79c-27.93 0.75-56.36 2.14-84.54 2.52c-21.89 0.31-43.59-1.82-65.04 3.52h0zm-2.14 43.03c-4.41 0-7.99-3.58-7.99-7.99c0-4.41 3.58-7.99 7.99-7.99c51.39-0.38 101.9 7.11 152.92 12.2c52.71 4.82 105.68 6.38 158.58 4.65c104.36-2.39 207.9-9.94 311.94-10.5c4.16 0.37 7.34 3.85 7.34 8.02c0 4.17-3.19 7.65-7.34 8.02c-108.19 0.57-216.2 9.31-324.4 10.69c-52.73 1.24-105.49-0.86-157.95-6.29c-46.74-5.41-93.73-11.51-141.09-11.01l0 0.19zm27.93 44.66c-4.15-0.37-7.34-3.85-7.34-8.02c0-4.17 3.19-7.65 7.34-8.02c98.57 1.38 196.83 17.99 295.65 21.51c99.95 3.59 199.91 3.84 299.86 2.01c4.41 0 7.99 3.58 7.99 7.99c0 4.41-3.58 7.99-7.99 7.99c-99.95 1.89-199.97 1.89-299.86-1.95c-98.7-3.84-197.01-20.13-295.65-21.51v0zm-21.7 52.27c-3.77 1.79-8.29 0.4-10.4-3.2c-2.11-3.6-1.12-8.22 2.28-10.64c12.39-7.11 22.9-5.35 37.05-5.35h71.27c48.25-0.06 96.43-0.06 144.68 3.15c93.48 6.23 186.7 17.74 280.55 16.1c4.16 0.37 7.34 3.85 7.34 8.02c0 4.17-3.19 7.65-7.34 8.02c-89.83 1.51-178.9-9.37-268.35-15.35c-44.41-2.96-88.69-3.96-133.17-3.96h-71.21c-15.41 0-38.81-4.78-52.71 3.21l0 0zm13.08 32.58c-4.26 1.18-8.66-1.31-9.84-5.57c-1.18-4.26 1.31-8.66 5.57-9.84c19.5-5.28 38.06-2.7 57.87-0.38c26.48 3.15 53.34 3.15 79.95 4.15c53.91 2.14 107.88 4.84 161.85 4.84c108.7 0.88 217.46-3.65 325.91 6.29c10.19 0.88 10.32 16.92 0 15.98c-108.51-9.88-217.21-4.91-325.9-5.98c-53.97-0.5-107.94-2.77-161.85-4.84c-23.4-0.94-47.43-0.38-70.7-3.08c-21.14-2.45-42.02-6.98-62.9-1.32l0.06-0.25zm-12.71 43.34c-4.41 0-7.99-3.58-7.99-7.99c0-4.41 3.58-7.99 7.99-7.99c48.25 1.01 95.55 7.99 144.68 7.3c49.13-0.69 98.19-2.52 147.26-2.83c93.98-0.69 188.46 6.6 282.25 4.09c10.32-0.31 10.25 15.98 0 15.98c-49.51 1.32-99.45-4.28-148.2-4.28c-48.75 0-97.31-0.38-146.5 0.19c-49.19 0.57-98.38 2.83-147.57 2.83c-44.03 0.06-88.07-6.29-132.1-7.42l0.19 0.13z" />
		</g>
		<g id="Mask" clip-path="url(#cp2)">
			<path id="Path 704" class="s0" d="m1487.29 1712.63c-43.15 10.32-383.02 1.13-482.28 4.34c16.1-284.01 3.59-554.94 15.98-839.07c123.73 12.58 425.8-20 425.99-12.58c7.11 269.92 12.58 578.46 40.32 847.32z" />
			<path id="Path 705" class="s1" d="m983.49 933.63c-10.25-0.5-10.32-16.54 0-15.98c32.58 1.76 70.26-8.81 102.72-12.01c44.33-4.19 88.76-7.67 133.29-10.44c45.92-2.7 92.78-5.28 138.39-6.86c45.61-1.57 92.72 5.54 137.82-2.58c10.06-1.76 14.4 13.65 4.21 15.47c-42.9 7.67-86.18 1.2-129.46 2.7c-50.32 1.64-100.65 4.28-150.97 7.3c-48.5 2.89-96.93 6.54-145.31 11.51c-29.25 3.08-61.14 12.39-90.71 10.76l0 0.13zm19 54.35c-9.31 4.09-17.49-9.69-8.05-13.84c33.4-14.72 73.03-13.84 108.89-16.67c44.16-3.52 88.63-5.98 132.66-8.43c95.8-5.41 191.73-5.91 287.72-5.91c4.15 0.37 7.34 3.85 7.34 8.02c0 4.17-3.19 7.65-7.34 8.02c-87.56 0-175.25 0-262.69 4.53c-44.54 2.26-89.13 4.65-133.61 7.93c-39 2.89-88.82 0.38-124.93 16.35v0zm-14.47 60.64c-4.41 0-7.99-3.58-7.99-7.99c0-4.41 3.58-7.99 7.99-7.99c60.2 0.82 121.53-7.86 181.79-10.13c57.49-2.26 115.05-3.59 172.55-2.26c116.12 2.77 231.99 12.2 348.11 12.58c4.41 0 7.99 3.58 7.99 7.99c0 4.41-3.58 7.99-7.99 7.99c-120.34-0.38-240.23-11.13-360.5-12.58c-57.49-0.69-114.99 0.57-172.36 3.02c-56.61 2.39-113.73 10.38-169.84 9.56l0.25-0.19zm-36.23 55.73c-4.16-0.37-7.34-3.85-7.34-8.02c0-4.17 3.19-7.65 7.34-8.02c56.42 0.38 113.67-11.2 170.28-13.71c53.78-2.45 107.75-4.91 161.6-5.41c98.44-0.82 208.02-2.89 301.94 32.21c9.56 3.59 5.41 19.06-4.28 15.47c-95.87-35.92-209.53-33.46-310.56-31.45c-53.78 1.07-107.63 2.89-161.35 5.79c-52.52 2.83-105.49 13.15-157.95 13.15h0.31zm21.07 57.37c-4.41 0-7.99-3.58-7.99-7.99c0-4.41 3.58-7.99 7.99-7.99c121.28-0.57 242.24-12.39 363.58-13.78c56.61-0.63 112.79 1.13 169.4 4.28c46.3 2.64 92.97 3.9 137.38 18.31c9.81 2.83 5.6 18.62-4.21 15.41c-49.95-15.91-103.54-15.91-155.5-18.87c-57.12-3.21-114.36-3.77-171.54-2.45c-113.1 2.64-225.89 12.83-339.11 13.34l0-0.25zm-44.91 55.48c-10.06 2.2-14.34-13.21-4.28-15.41c111.09-24.22 230.61-17.74 343.83-14.4c119.52 3.52 239.03 14.09 358.55 14.09c4.16 0.37 7.34 3.85 7.34 8.02c0 4.17-3.19 7.65-7.34 8.02c-119.52-0.19-239.03-11.13-358.55-14.15c-111.72-2.77-230.04-10.06-339.68 13.84h0.13zm81.21 57.93c-4.41 0-7.99-3.58-7.99-7.99c0-4.41 3.58-7.99 7.99-7.99c110.77 2.26 220.67-15.6 331.38-17.24c112.35-1.89 224.57 3.9 336.91 4.4c4.41 0 7.99 3.58 7.99 7.99c0 4.41-3.58 7.99-7.99 7.99c-112.35-0.44-224.63-6.67-336.91-4.4c-110.65 2.26-220.6 19.5-331.38 17.24v0zm-2.14 49.13c-4.16-0.37-7.34-3.85-7.34-8.02c0-4.17 3.19-7.65 7.34-8.02c111.97-2.64 223.62-6.54 335.59-10.69c51.83-1.89 103.67-2.01 155.56-3.27c45.1-1.07 90.02-1.32 134.43 7.86c10.06 2.08 5.79 17.55-4.28 15.41c-50.26-10.38-101.4-7.8-152.35-6.67c-52.9 1.2-105.8 1.38-158.71 3.77c-103.48 4.59-206.7 7.17-310.24 9.62v0zm-36.3 59c23.53-7.99 48-7.36 72.53-9.18c29.44-2.26 58.75-4.65 88.07-6.73c63.09-4.47 126.56-6.98 189.47-8.62c122.1-3.08 244.95-3.52 367.42-3.52c4.16 0.37 7.34 3.85 7.34 8.02c0 4.17-3.19 7.65-7.34 8.02c-122.47 0-245.01 0.19-367.42 3.52c-59 1.38-118.01 3.52-176.89 7.67c-29.44 2.14-58.75 4.47-88.07 6.67c-26.8 2.01-55.23 0.94-80.83 9.56c-9.81 3.46-14.03-12.14-4.28-15.41zm4.53 75.48c-4.41 0-7.99-3.58-7.99-7.99c0-4.41 3.58-7.99 7.99-7.99c115.24-0.25 230.35-9.94 345.59-9.37c56.11 0.31 112.72 4.15 169.34 4.15c49.25-0.25 98.38-2.14 146.94 7.61c10.06 2.01 5.79 17.49-4.28 15.47c-54.66-11.01-109.52-5.41-164.75-7.3c-53.22-1.89-106.43-3.9-159.71-3.9c-111.34 0.5-222.24 9.31-333.39 9.31l0.25 0zm10.38 34.16c-4.41 0-7.99-3.58-7.99-7.99c0-4.41 3.58-7.99 7.99-7.99c212.87-0.63 426.11-31.51 638.41-4.28c10.06 1.26 10.25 17.3 0 15.98c-212.3-27.17-425.54 3.65-638.41 4.28l0 0zm12.83 59.51c-4.26 1.18-8.66-1.31-9.84-5.57c-1.18-4.26 1.31-8.66 5.57-9.84c17.36-5.35 34.53-4.03 52.46-3.02c26.1 1.02 52.24 0.37 78.25-1.95c53.97-3.77 107.94-10.19 162.1-11.57c112.47-2.83 224.63 8.18 337.04 7.67c4.15 0.37 7.34 3.85 7.34 8.02c0 4.17-3.19 7.65-7.34 8.02c-108.19 0.5-216.26-10.76-324.46-7.99c-54.29 1.32-108.13 7.17-162.23 11.01c-27.33 2.82-54.81 3.91-82.28 3.27c-18.87-1.07-38.18-3.71-56.61 1.95v0zm-36.04 74.73c-10.13 1.51-14.47-13.9-4.28-15.41c130.15-19.14 261.25-31.19 392.71-36.11c64.73-2.7 129.9-5.28 195-3.52c50.95 1.38 105.62-2.14 155.06 11.83c3.95 1.43 6.14 5.66 5.02 9.72c-1.12 4.05-5.17 6.56-9.3 5.76c-54.41-15.41-118.89-11.32-175.19-11.7c-61.02-0.38-122.03 1.82-183.05 4.47c-125.94 4.95-251.53 16.62-376.23 34.97l0.25 0zm50.83 49.38c-4.41 0-7.99-3.58-7.99-7.99c0-4.41 3.58-7.99 7.99-7.99c24.16-0.19 47.18-7.36 71.14-9.12c29.44-2.26 58.88-4.21 88.38-5.54c54.85-2.58 109.52-2.01 164.49-2.58c54.98-0.57 110.02-2.45 165-2.01c51.2 0.44 102.34 5.54 153.61 4.28c4.16 0.37 7.34 3.85 7.34 8.02c0 4.17-3.19 7.65-7.34 8.02c-55.48 1.32-111.34-4.65-166.32-4.28c-54.98 0.38-110.02 1.82-164.93 2.08c-54.92 0.25-109.7 0.19-164.49 3.15c-31.01 1.64-63.28 1.7-93.92 7.36c-17.37 3.73-35.03 5.94-52.78 6.61h-0.19zm-61.77 27.99c-4.41 0-7.99-3.58-7.99-7.99c0-4.41 3.58-7.99 7.99-7.99c217.02-0.38 432.46-26.17 649.11-2.14c10.13 1.13 10.25 17.17 0 16.04c-216.64-24.09-432.09 1.7-649.11 2.08l0 0z" />
		</g>
		<path id="Path 707" class="s2" d="m581.22 1619.03c-1.01-10 4.97-18.87 8.93-28.31c9.18-21.14 8.3-45.23 5.79-68.12c-3.68-36.28-12.14-71.92-25.16-105.99c-16.17-41.45-29.56-80.33-31.45-124.8c-2.1-62.97 6.19-125.86 24.53-186.13c98.95-45.04 197.08-86.12 299.55-122.22c8.96-5.02 20.14-3.64 27.61 3.4c52.08 35.73 104.48 71.71 149.33 116.18c49.38 48.94 92.72 94.98 119.52 159.15c11.64 27.99 23.59 62.9 25.6 92.91c1.51 21.83-8.3 53.47-24.47 68.19c-13.15 11.95-31.83 15.22-47.3 23.97c-21.19 13.01-35.85 34.42-40.32 58.88c-4.84 24.03 1.32 56.61 9.62 79.51c-91.02 4.21-184.25 4.47-274.76 15.22c-28.87 3.46-57.81 7.23-86.24 13.46c-43.53 9.56-86.56 25.16-131.09 23.65c-5.49 0.52-10.94-1.38-14.91-5.22c-2.89-4.34-0.06-15.1 5.22-13.71z" />
		<path id="Path 708" class="s3" d="m562.04 1802.21c-2.39-21.45 2.2-117.44 3.9-126.63c6.29-34.09 7.99-58.5 15.98-60.58c16.54-4.28 56.99-2.7 73.85-3.33c142.29-4.91 310.49-21.7 424.92-33.28c5 63.48 5 127.25 0 190.72c-176.57 12.01-341.57 21.07-518.64 33.09z" />
		<path id="Path 709" fill-rule="evenodd" class="s4" d="m1146.92 1662.56c-0.64 17.37-4.61 34.45-11.7 50.32c-4.18 12.5-11.84 23.54-22.08 31.83c-17.93 12.45-42.71 8.11-62.4-1.38c-18.01-8.26-33.39-21.32-44.47-37.74c-10.38-16.61-10.19-26.73-12.58-46.3c-2.39-22.33 20.38-66.36 41.64-73.66c25.16-8.62 59.7-12.14 81.78 3.21c22.02 15.35 30.38 47.18 29.82 73.72zm-46.86 15.79c4.04-9 5.85-18.84 5.28-28.68c0.89-7.49-1.39-15.02-6.29-20.76c-3.92-3.02-8.65-4.81-13.59-5.16c-11.76-1.64-25.54 0.31-32.21 10.13c-2.52 4.02-4.11 8.56-4.65 13.27c-2.17 10.39-1.07 21.2 3.15 30.95c4.49 9.89 14.3 16.29 25.16 16.42c10-0.99 18.77-7.11 23.15-16.17h0z" />
		<path id="Path 710" class="s5" d="m444.16 878.91c-11.07 23.65-22.33 48.37-23.15 74.35c-0.82 25.98 8.87 51.14 18.49 75.48c22.14 56.05 47.68 115.93 99.14 147.38c8.95 4.36 17.18 10.07 24.41 16.92c5.68 7.5 9.81 16.05 12.14 25.16c35.04 106.37 88.88 226.89 67.94 328.3c-2.64 12.96-22.27-10.25-25.98-22.83c-21.95-74.86-40.7-146.13-61.27-221.61c15.85 88.38 34.97 185.57 21.76 251.62c-3.21 16.04-19 11.76-23.59 4.59c-4.15-7.46-6.96-15.6-8.3-24.03c-16.23-73.22-36.23-153.3-52.4-226.45c8.68 68.27 15.12 136.73 19.31 205.38c0.75 12.39 4.4 30.13-6.67 35.79c-6.29 3.21-10.95-8.3-12.58-15.29c-17.42-76.24-34.35-170.6-48.88-247.46c0 57.68 6.29 229.35 0 249.79c-1.26 4.15-11.32 16.48-15.98 16.73c-4.65 0.25-14.47-0.69-16.04-8.74c-18.43-92.09-22.46-176.13-41.33-272.5c-13.15 109.2 16.54 214.44-11.51 277.34c-6.42 14.41-22.46 19.19-32.02 3.21c-87.69-146.13-122.54-323.96-117.38-494.3c1.51-48.37 7.93-97.25 26.36-142.04c18.43-44.79 49.63-85.42 92.09-108.7c42.46-23.27 96.75-27.11 139.21-3.9c-10.63 22.77-12.71 52.15-23.78 75.8z" />
		<path id="Path 711" class="s6" d="m969.91 769.26c13.21 75.8 10.76 131.53-6.29 206.51c-7.99 35.29-16.04 62.46-43.28 97.69c-37.81 48.65-92.03 81.9-152.54 93.54c-61.9 13.15-125.81 10.5-188.71 11.01c-36.61 0-75.67 0.94-106.5-18.87c-12.48-8.58-23.41-19.21-32.33-31.45c-53.12-70.14-66.71-162.55-36.04-245.01c32.41-81.77 104.34-141.32 190.72-157.89c-19 57.31-12.27 123.79 22.39 173.24c32.32 48.43 88.86 74.92 146.75 68.75c19.63-1.76 37.43-11.89 53.22-23.65c74.54-55.73 106.37-155.06 97.94-247.78c23.78 14.34 49.76 46.3 54.66 73.91z" />
		<path id="Path 712" class="s0" d="m591.6 761.78c-0.52-0.98-0.7-2.11-0.5-3.21c0.38-4.53 0.69-9.06 1.07-13.59c0.01-1.99 0.42-3.96 1.2-5.79c1.6-2.64 4.07-4.64 6.98-5.66c7.61-3.34 16.02-4.41 24.22-3.08c-0.38 10.69-0.82 21.39-1.2 32.08c-9.26 0.94-18.57 1.2-27.87 0.75c-1.46 0.09-2.89-0.46-3.9-1.51zm28.62 42.46c-0.08 0.81-0.44 1.56-1.01 2.14c-0.72 0.49-1.6 0.67-2.45 0.5l-23.15-0.57c-2.9-12.9-3.45-26.22-1.64-39.31c10.75-0.11 21.42 1.81 31.45 5.66c0.03 10.61-1.04 21.19-3.21 31.58z" />
		<path id="Path 713" class="s7" d="m540.34 767.69c5.24 13.99 8.38 28.68 9.31 43.59c0.58 5.42 0.18 10.89-1.2 16.17c-4.74 12.07-15.2 20.97-27.87 23.71c-17.42 4.97-50.32 12.58-66.43-35.54c-13.34-39.94-1.64-64.04 27.17-76.87c16.06-7.22 34.91-3.77 47.37 8.68c5.11 5.97 9.06 12.84 11.64 20.26v0zm9.44 148.83c9.41 10.76 16.44 23.39 20.63 37.05c4.19 13.77 3.32 28.58-2.45 41.77c-6.5 15.39-18.56 27.77-33.78 34.66c-15.22 5.91-42.27 7.74-52.97-4.84c-33.59-40.07-31.45-61.58-19.88-87.31c6.29-13.27 14.47-27.93 28.24-32.84c26.99-9.5 50.13-0.63 60.2 11.51z" />
		<path id="Path 714" class="s4" d="m605.5 1169.84c-3.18 19 0.65 38.51 10.76 54.92c6.55 10.27 14.81 19.36 24.41 26.86c2.27 2.06 4.92 3.66 7.8 4.72c6.76 1.29 13.63-1.61 17.42-7.36c3.61-5.75 6.01-12.17 7.05-18.87c7.11-31.14-13.96-67.18-42.15-82.22c-1.61-0.62-2.97-1.78-3.84-3.27c-2.08-4.72 5.72-7.23 10.76-6.29c40.01 9.06 67.18 50.32 69.95 90.96c1.45 22.27-3.65 45.98-18.87 62.09c-15.22 16.1-42.59 21.83-60.7 8.81c-5.66-4.33-10.49-9.63-14.28-15.66c-19.38-28.69-27.61-63.48-23.15-97.82c0.21-4.16 1.73-8.14 4.34-11.39c2.77-2.77 8.24-8.81 10.5-5.47z" />
		<path id="Path 715" class="s8" d="m1224.54 1042.08c-0.44 54.16-19.37 106.37-40.95 156c-12.58 28.81-26.29 57.62-47.05 81.15c-11.6 12.66-24.22 24.33-37.74 34.91c-14.43 12.01-29.48 23.24-45.1 33.65c-83.47 53.85-205.76 78.13-286.15 19.81c-26.67-19.37-37.74-55.54-33.02-88.07c4.72-32.52 14.78-73.41 41.71-92.41c29.19-20.63 54.47-28.81 123.86-32.21c72.91-3.52 135.56-61.14 162.17-129.14c11.26-28.81 15.98-59.76 20.63-90.33c12.58-82.66 2.45-170.47-5.16-253.69c-1.45-15.73-3.08-31.45-5.72-46.86c-6.92-41.33-20.82-82.34-16.92-124.05c-0.12-5.48 1.99-10.77 5.85-14.66c-0.63 0.38-1.95 1.51-1.57 0.82c0.41-0.59 1.05-0.97 1.76-1.07c28.74-8.27 58.63-11.84 88.51-10.57c13.27 16.1 22.39 39.13 28.75 59c6.29 18.87 11.95 37.74 16.04 56.61c3.02 14.4 5.03 29 7.05 43.59c18.56 136.06 37.18 273.88 21.64 410.38l1.45-12.9zm-357.86-752.9c7.95 8.63 17.42 15.73 27.93 20.95c29.25 14.47 69.19 6.86 89.76-18.87c4.95-5.85 8.5-12.76 10.38-20.19c1.73-11.06 1.08-22.36-1.89-33.15c-1.51-7.61-22.02-27.74-38.5-37.05c-1.45-9.64 4.68-18.81 14.15-21.14c9.41-1.82 19.15 0.15 27.11 5.47c17.49 10.89 30.48 27.7 36.61 47.37c9.84 30.19 5.44 63.2-11.95 89.76c-6.51 10.4-15.48 19.04-26.11 25.16c-20.63 11.2-52.96 12.14-75.48 6.29c-20.84-4.48-40.84-12.23-59.26-22.96c-3.02-1.89-1.89-10.82-3.02-14.15c-0.66-2.82-0.46-5.78 0.57-8.49c1.51-7.07 4.85-13.62 9.69-19v0z" />
		<path id="Path 716" class="s9" d="m661.24 201.56c36.8-50.32 74.6-82.34 124.93-119.52c12.58-9.12 31.45-23.34 44.03-30.7c20.76-12.58 42.15-25.16 66.05-29.38c20.95-3.52 45.73 14.53 62.9 27.17c24.22 17.93 54.54 43.47 51.52 73.47c-2.58 25.98-17.11 43.15-30.7 65.48c-5.99 10.41-12.85 20.3-20.51 29.56c-6.6 7.67-85.49 108.19-109.89 129.96c-1.01 1.14-2.39 1.88-3.9 2.08c-2.14 0-3.71-1.76-4.97-3.46c-45.98-61.52-100.65-97.82-171.1-129.14c1.57 0.75 3.84-9.88 5.35-9.12l-13.71-6.42z" />
		<path id="Path 717" class="s8" d="m757.54 332.52l-32.9-27.8c-8.16-6.56-15.8-13.75-22.83-21.51c-7.93-9.06-17.74-17.3-24.03-27.93c-4.91-8.68-13.21-20.76-15.47-30.45c-2.26-9.69-4.28-17.99 1.57-26.11c5.85-8.11 27.8-14.47 47.56-10.19c43.91 9.18 95.99 53.47 116.37 93.6c8.04 14.04 14.8 28.78 20.19 44.03c1.07 3.23 1.69 6.6 1.82 10c0 9.06-2.08 16.92-10.44 20.44c-10.09 3.34-20.98 3.34-31.07 0c-8.41-3.39-16.2-8.13-23.09-14.03c-11.01 3.71-18.81-3.08-27.68-10.06z" />
		<path id="Path 718" class="s3" d="m804.97 912.75c-9.74 9.79-21.89 16.85-35.23 20.44c-12.9 2.83-32.52 16.48-45.1 13.65c-19.21-3.79-37.63-10.83-54.47-20.82c-17.05-10.06-37.93-15.66-41.64-35.23c18.81-39.5 12.2-111.65 15.79-155.25c2.96-36.48 21.07-72.59 12.58-108.19c-3.84-17.36-14.34-32.58-22.71-48.44c-32.48-62.85-39.25-135.87-18.87-203.62c20.07-66.99 68.82-136.88 127.57-174.62c4.99 1.51 9.69 3.85 13.9 6.92c9.56 6.6 17.11 11.83 26.17 19.19c20.76 17.05 31.01 27.8 40.57 47.56c5.68 9.68 10.85 19.65 15.47 29.88c1.64 4.53-23.71 21.32-26.92 25.16c-22.83 28.77-33.55 65.3-29.88 101.84c3.88 36.34 18.09 70.81 40.95 99.33c9.01 10.42 17.25 21.48 24.66 33.09c9.07 17.44 14.59 36.52 16.23 56.11c3.21 27.55-1.57 88.69-1.57 99.58c-0.57 27.93 9.69 40.51 20.82 65.67c-20.63 51.46-37.24 90.39-78.32 127.76zm-254.57-395.79c-0.67 10.72-3.23 21.24-7.55 31.07c-4.26 10.01-13.22 17.25-23.9 19.31c-13.27 1.76-26.11-8.3-31.45-20.88c-4.49-12.9-5.36-26.78-2.52-40.13c6.9-47.11 27.66-91.1 59.63-126.37c4.6-5.71 10.67-10.06 17.55-12.58c-3.9 15.22-7.86 31.07-11.76 46.67c-1.94 6.46-3.2 13.1-3.77 19.81c0.31 10.2 1.57 20.35 3.77 30.32c2.08 17.53 2.08 35.25 0 52.78zm375.22 58.12c-2.27-0.27-4.44-1.11-6.29-2.45c-7.33-4.85-12.18-12.66-13.27-21.39c-1.26-10 2.64-19.81 4.21-29.75c2-12.8 0.25-25.91-5.03-37.74c11.44 7.41 20.24 18.24 25.16 30.95c4.89 12.67 7.45 26.11 7.55 39.69c0.41 4.61-0.21 9.25-1.82 13.59c-1.8 4.23-5.91 7.01-10.5 7.11v0z" />
		<path id="Path 719" class="s6" d="m1060.93 498.09h-3.08c-4.21-8.01-5.69-17.18-4.21-26.11c1.59-8.83 2.49-17.77 2.7-26.73c0.14-9.09-4.03-17.7-11.26-23.21c-8.55-5.54-19.63-3.71-29.82-4.03c-10.19-0.31-21.76-7.05-32.52-9.69l-27.68-6.86c-9.61-1.8-18.83-5.27-27.24-10.25c-8.6-5.21-13.84-14.54-13.84-24.6c0.05-3.46 1.64-6.71 4.34-8.87c2.21-1.23 4.7-1.88 7.23-1.89c8.25-0.46 16.52 0.46 24.47 2.7c-11.48-12.43-20.26-27.1-25.79-43.09c-1.71-3.96-2.28-8.32-1.64-12.58c0.76-4.28 4.46-7.4 8.81-7.42c2.98 0.67 5.64 2.33 7.55 4.72l28.43 28.75c-9.97-12.88-18.55-26.77-25.6-41.45c-1.54-3.02-1.66-6.57-0.31-9.69c3.02-3.4 7.94-4.36 12.01-2.33c4.15 1.51 23.59 16.67 27.99 16.73c-6.86-8.37-16.86-17.24-18.56-27.93c-0.44-1.77-0.26-3.63 0.5-5.28c1.38-1.73 3.45-2.76 5.66-2.83c23.84-3.59 45.48 13.15 63.6 29.06c5.48 4.29 10.16 9.51 13.84 15.41c6.29 11.26 5.16 26.17 13.9 35.48c4 3.64 8.46 6.73 13.27 9.18c25.65 16.1 39.96 45.35 36.92 75.48c-1.95 17.24 24.66 25.16 33.72 39.76c4.42 7.37 6.2 16.02 5.03 24.53c-27.93 5.41-60.01 13.65-88.44 13.02z" />
		<path id="Path 720" class="s10" d="m911.34 838.14c-10.19 26.23-21.01 52.84-39.88 73.98c-8.6 9.26-18.06 17.68-28.24 25.16c-28.5 22.08-60.89 41.45-96.75 44.47c-26.29 2.2-55.61-5.91-86.05-20.32c-23.84-11.26-76.74-55.73-88.07-102.47c-11.89-49.51-20.95-83.16-4.78-131.28c3.73-10.72 12.88-18.65 24.03-20.82c16.23-1.64 21.07 6.42 18.87 22.65c-5.22 16.66-9.15 33.69-11.76 50.95c-5.72 40.82 25.98 81.21 53.78 111.65c27.8 30.45 71.27 49.19 111.15 38.81c16.99-4.42 32.78-12.57 46.23-23.84c15.51-13.85 28.42-30.36 38.12-48.75c11.94-21.68 20.97-44.84 26.86-68.88c7.12-24.19 6.66-49.99-1.32-73.91c-2.41-5.02-3.88-10.43-4.34-15.98c0-14.59 18.75-23.84 32.58-18.87c13.84 4.97 22.33 19.25 26.04 33.53c10.57 41.64-0.69 83.16-16.48 123.92zm-405.98 332.38c-1.3-12.75 0.88-25.62 6.29-37.24c5.51-11.68 15.93-20.3 28.43-23.53c7.93-1.35 16.03-1.35 23.97 0c21.14 1.65 41.95 6.22 61.83 13.59c3.82 1.14 7.12 3.59 9.31 6.92c1.05 2.31 1.55 4.83 1.45 7.36c0.34 22.69-9.37 44.37-26.53 59.23c-17.16 14.85-40.01 21.36-62.42 17.77c-14.84-1.67-28.13-9.94-36.17-22.52c-3.57-6.67-5.67-14.03-6.16-21.58z" />
		<path id="Path 721" class="s3" d="m478.44 768.51c0.2-8.77 7.27-15.84 16.04-16.04c8.83 0.03 15.98 7.21 15.98 16.04c-0.07 3.47-1 6.86-2.7 9.88c-1.32 2.14 0.13 1.45 0.57-1.76l0-8.55c-0.54-1.69-1.42-3.25-2.58-4.59l-25.16 3.21l1.7-3.52c-2.01 4.65 0 0.5 0-0.75l15.47 20.26h-0.38l13.84-7.93c0.5-4.34 1.07-8.43 1.57-12.58c-7.3-6.92-9.18-9.56-5.72-7.93l-8.05-2.2h0.38c5.96-0.37 11.63 2.59 14.72 7.7c3.09 5.11 3.09 11.51 0 16.62c-3.09 5.11-8.77 8.07-14.72 7.7c-6.33-0.07-12.18-3.4-15.47-8.81c-3.12-5.25-3.24-11.75-0.31-17.11c2.85-4.94 8.14-7.97 13.84-7.93h0.38c4.96 0.09 9.6 2.45 12.61 6.4c3 3.95 4.04 9.05 2.81 13.86c-1.26 4.12-2.88 8.12-4.84 11.95c-2.81 4.98-8.12 8.02-13.84 7.93c-4.24 0.02-8.32-1.66-11.32-4.65c-4.8-4.68-6.93-11.47-5.66-18.05c0.38-1.8 1.11-3.51 2.14-5.03c1.76-2.52-0.31-1.51-1.13 5.47l-0.13 0.44zm20 170.34c-1.89-5.63-0.51-11.85 3.59-16.16c4.1-4.31 10.24-5.99 15.96-4.39c5.72 1.61 10.09 6.24 11.34 12.05c0.54 2.8 0.71 5.65 0.5 8.49l-31.45-4.21c0.57-1.76 1.2-3.52 1.7-5.35l30.82 8.24c-0.69 1.95-0.94 3.96-1.64 5.85c-2.39 8.51-11.11 13.58-19.69 11.45c-8.49-2.38-13.47-11.18-11.13-19.69c0.69-1.89 0.94-3.96 1.64-5.85c2.58-8.31 11.18-13.16 19.63-11.07c8.46 2.36 13.47 11.06 11.26 19.56c-0.5 1.82-1.13 3.59-1.7 5.35c-2.21 7.65-9.69 12.52-17.57 11.45c-7.89-1.07-13.79-7.77-13.88-15.73c0-0.63 0-1.26 0-1.95c0.06-2.14-0.75-3.9 0.57 1.95h0.06zm27.3-182.74c-7.55-7.23 3.96-18.56 11.32-11.32c25.22 24.6 24.34 58.63 18.05 91.02c-1.89 10.19-17.3 5.85-15.41-4.21c4.91-26.61 6.92-55.17-13.96-75.48l0 0zm28.94 148.83c33.09 31.45 39.25 92.03 0 121.4c-8.11 6.23-16.23-7.49-8.11-13.78c31.14-23.27 21.51-72.84-3.21-96.37c-7.55-7.11 3.84-18.43 11.32-11.26z" />
		<path id="Path 722" class="s6" d="m587.64 1132.85c7.64 4.48 10.22 14.29 5.79 21.95c-4.61 7.47-14.28 9.99-21.95 5.72c-0.69-0.44-4.65-1.82-0.69-0.44l-2.08-0.69c-1.2 0-5.22-0.31 0 0c-1.82-0.44-4.47 0.75 0.57-0.44c-3.52 0.88 3.15-1.89 1.01-0.5c-2.14 1.38 3.08-3.02 1.51-1.07c1.82-2.58 2.58-4.03 1.51-1.95c-1.07 2.08 1.32-4.59 0.63-1.13c-0.75 2.39 0-5.03 0-1.26c0 3.77-0.63-3.65 0-1.01c0.38 1.38 2.08 5.03-0.31 0c0.44 0.88 0.88 1.76 1.38 2.58c2.45 3.65-1.82-1.95 0 0c0.69 0.78 1.45 1.49 2.26 2.14c-4.34-3.4-0.57-0.57 0.69 0c-4.84-1.82-1.26 0 0 0c2.52 0.63-4.47 0 0 0c4.47 0-2.39 0.75 0.5 0c0.75-0.5 3.4-1.82 0 0c0.66-0.31 1.29-0.66 1.89-1.07c-1.82 1.51-2.2 1.7-0.94 0.5c-1.51 2.01-1.64 2.45-0.88 0.94c0.75-1.51 0.63-1.07-0.5 1.26c0.44-1.7 0.44-1.2 0 1.51c0-1.64-1.13-4.91 0-0.38c-0.31-1.57-1.57-3.84 0.38 0c-0.25-0.57-0.88-1.07-0.88-1.64c2.83 4.21-2.45-1.07 1.82 1.64c-3.59-2.26 1.95 0.13-0.69-0.38c2.58 0 2.83-0.31 1.07 0c-1.76 0.31-1.51 0 0.75 0c-1.13 0-4.53 1.7-1.13 0c-0.68 0.29-1.34 0.65-1.95 1.07c1.8-1.51 2.12-1.7 0.94-0.57c1.45-2.14 1.76-2.52 0.88-1.13c1.01-2.56 1.26-3.06 0.75-1.51c0-2.96-0.38-3.65 0-1.95c0.38 1.7 0 1.01 0-2.01c0.5 1.57 0.25 1.01-0.82-1.7c0.82 1.38 0.38 0.88-1.26-1.45c1.13 1.13 0.57 0.75-1.7-1.07c1.38 0.82 0.75 0.57-1.89-0.69c1.57 0.63 0.88 0.57-2.14 0c-3.02 0.38-3.65 0.44-1.95 0c-2.45 1.2-2.89 1.32-1.38 0.5c-3.71 2.58 0.06-0.44 0.88-1.45c6.26-6.24 16.39-6.24 22.65 0c6.1 6.31 6.1 16.33 0 22.65c-6.03 8.02-16.18 11.78-25.98 9.62c-13.19-3.79-20.91-17.44-17.36-30.7c4.61-13.86 18.32-22.59 32.84-20.88c14.87 1.68 26.49 13.59 27.8 28.5c1.17 13.98-7.71 26.84-21.2 30.7c-9.74 2.99-20.3 1.73-29.06-3.46c-8.77-5.2-14.93-13.85-16.98-23.84c-2.67-10.91 1.85-22.31 11.26-28.43c11.13-6.16 23.15-2.89 33.84 2.39l0.13-0.88z" />
		<path id="Path 723" class="s7" d="m734.46 230.24c8.05-6.23 19.5 5.03 11.32 11.32c-22.77 17.68-31.96 53.47-30.51 81.27c0.38 7.05 1.13 25.48 11.26 26.86c8.37 1.2 15.98-7.49 19.56-13.78c9.41-17.15 14.85-36.2 15.91-55.73c0.88-10.13 16.04-10.44 16.04 0c-0.6 5.72-0.79 11.48-0.57 17.24c10.51 13.96 19.19 14.41 25.92 1.82c1.26-2.64 2.52-5.22 3.71-7.86c3.71-9.5 19.25-5.35 15.47 4.28c-5.6 14.22-21.32 37.11-40.2 29.25c-21.26-8.81-21.01-23.78-20.38-44.72h16.04c-2.39 27.68-8.49 58.06-29.88 77.62c-11.39 10.44-30.57 11.26-39.82-2.45c-22.96-34.22-4.91-101.09 26.11-125.12l0 0zm-56.55 261.81c4.03-9.5 17.8-1.32 13.78 8.05c-4.65 11.01 1.07 26.11 7.36 35.35c4.59 6.92 16.92 21.45 27.05 15.47c14.85-8.49 11.45-36.92 6.29-50.32c-3.4-9.69 11.83-13.84 15.47-4.28c7.93 21.2 7.93 69.13-23.53 71.52c-34.91 2.7-59.19-46.55-46.61-75.48l0.19-0.31zm88.69 34.22c0-4.41 3.58-7.99 7.99-7.99c4.41 0 7.99 3.58 7.99 7.99c0.69 24.85 20.88 39.13 32.14 59.13c10.13 17.93 12.01 37.18 14.97 57.31c3.4 22.96 4.97 45.67 6.29 68.82c1.26 22.33 10.44 44.79 9.62 66.36c-0.82 21.58-9.94 52.02-36.99 45.04c-29.31-7.61-35.04-55.1-35.6-78.88c0-4.41 3.58-7.99 7.99-7.99c4.41 0 7.99 3.58 7.99 7.99c-0.47 11.17 0.84 22.34 3.9 33.09c2.81 18.2 14.47 23.71 34.97 16.54c3.46-18.18-0.69-34.85-4.03-52.59c-4.65-24.72-3.52-49.32-6.79-74.48c-5.22-36.67-9.12-63.72-31.45-93.73c-10.88-14.66-19-27.74-19.31-46.61l0.31 0zm-12.01 85.49c-4.21-9.37 9.62-17.49 13.78-8.05c11.18 25.34 13.72 53.65 7.23 80.58c-2.39 10-17.8 5.79-15.41-4.28c5.61-22.86 3.65-46.92-5.6-68.57v0.31zm-242.9-103.46c4.17 0 7.65 3.19 8.02 7.34v10.69c-0.37 4.16-3.85 7.34-8.02 7.34c-4.17 0-7.65-3.19-8.02-7.34v-10.69c0.37-4.16 3.85-7.34 8.02-7.34z" />
		<path id="Path 724" class="s4" d="m387.54 832.42c9.75 3.33 5.54 18.81-4.21 15.41c-35.79-12.39-78.13 37.36-92.41 65.67c-22.82 46.88-35.16 98.15-36.17 150.28c-2.02 52.59 2.78 105.21 14.28 156.57c6.04 26.8 11.45 53.78 15.16 81.02c2.39 17.86 2.45 36.86 9.94 53.53c4.21 9.31-9.56 17.49-13.84 8.11c-9.69-21.7-9.75-46.11-13.4-69.19c-5.54-34.47-14.28-68.25-19.69-102.72c-10.01-56.91-11.56-114.99-4.59-172.36c7.23-49.63 21.07-106.94 56.61-144.68c21.39-22.77 54.6-53.41 88.57-41.64h-0.25zm-3.52 409.13c0.75-10.25 16.8-10.32 16.04 0c-2.14 30.51 6.29 60.01 12.58 89.64c2.08 10.06-13.4 14.4-15.47 4.28c-6.35-31.01-15.41-62.02-13.08-93.92l-0.06 0zm145.18 160.09c-0.31-10.32 16.04-10.32 16.04 0c0.75 28.81 10.95 56.49 12.58 85.42c0.63 10.32-15.41 10.25-15.98 0c-1.38-28.81-11.64-56.36-12.58-85.42h-0.06z" />
	</g>
</svg>