<svg version="1.2" baseProfile="tiny-ps" xmlns="http://www.w3.org/2000/svg" viewBox="0 0 501 690" width="501" height="690">
	<title>drunk_boy</title>
	<style>
		tspan { white-space:pre }
		.shp0 { fill: #fee9d1 } 
		.shp1 { fill: #ffcd9c } 
		.shp2 { fill: #8c3d35 } 
		.shp3 { fill: #702b28 } 
		.shp4 { fill: #563843 } 
		.shp5 { fill: #775160 } 
		.shp6 { fill: #efe1c2 } 
		.shp7 { fill: #e2c7a1 } 
		.shp8 { fill: #dbbb95 } 
		.shp9 { fill: #684350 } 
		.shp10 { fill: #ef6c9c } 
		.shp11 { fill: #ce4d75 } 
		.shp12 { fill: #513e3e } 
		.shp13 { fill: #443131 } 
		.shp14 { fill: #996262 } 
		.shp15 { fill: #fff2d9 } 
		.shp16 { fill: #f4dfbe } 
		.shp17 { fill: #ffae85 } 
		.shp18 { fill: #6ba093 } 
		.shp19 { fill: #5b8c84 } 
		.shp20 { fill: #457068 } 
		.shp21 { fill: #8dc4b5 } 
		.shp22 { fill: #e8dfac } 
		.shp23 { fill: #e0d186 } 
		.shp24 { fill: #7fbaab } 
		.shp25 { opacity: 0.502;fill: #d15443 } 
		.shp26 { fill: #d8b493 } 
		.shp27 { fill: #422b28 } 
		.shp28 { fill: #fff8d9 } 
		.shp29 { fill: #ef8f6f } 
		.shp30 { fill: #c48065 } 
		.shp31 { fill: #aa644b } 
		.shp32 { fill: #894936 } 
		.shp33 { fill: #e5a088 } 
		.shp34 { opacity: 0.698;fill: #fff9db } 
		.shp35 { fill: #4f3131 } 
		.shp36 { fill: #994239 } 
		.shp37 { fill: #997558 } 
	</style>
	<g id="drunk_boy">
		<g id="Capa 2">
			<g id="1">
				<g id="Grupo 1">
					<path id="Trazado 1" class="shp0" d="M500.5 689.43L0.02 689.43L119.54 0.34L380.99 0.34L500.5 689.43Z" />
				</g>
				<path id="Trazado 2" class="shp1" d="M369.56 290.42C370.29 287.12 379.46 275.74 381.77 275.74C384.55 275.7 381.93 278.69 385.01 279.96C388.09 281.23 388.72 281.39 390.49 280.97C393.94 280.1 394.06 282.21 391.24 283.46C388.67 284.54 389.12 284.53 389.19 285.09C389.33 286.25 389.75 285.65 392.24 285.36C394.97 284.99 395 287.15 392.03 287.86C389.57 288.44 388.02 289.12 388.01 289.56C388 290 388.47 289.91 390.4 289.85C392.33 289.78 391.57 292.03 388.83 292.15C387.23 292.23 385.52 292.26 384.39 292.35C375.17 290.91 369.56 296.1 369.56 290.42Z" />
				<path id="Trazado 3" class="shp2" d="M243.56 178.84L210.83 238.14C210.83 238.14 187.55 194.13 173.66 184.27C159.78 174.41 156.86 173.42 159.5 169.33C162.14 165.23 174.37 167.43 174.37 167.43C174.37 167.43 163.97 157.28 170.17 150.38C176.37 143.48 192.46 147.54 192.46 147.54C192.65 135.84 199.13 125.15 209.42 119.58C227.1 109.8 225.64 120.68 234.12 118.52C242.6 116.35 245.19 113.94 250.98 116.29C256.77 118.64 245.98 130 254.28 131.61C262.6 133.23 251.6 151.8 243.56 178.84Z" />
				<path id="Trazado 4" class="shp3" d="M236.78 191.13L210.83 238.14C210.83 238.14 187.55 194.13 173.66 184.27C159.78 174.41 156.86 173.42 159.5 169.33C162.13 165.23 174.37 167.43 174.37 167.43C174.37 167.43 163.97 157.28 170.17 150.38C176.37 143.48 192.46 147.54 192.46 147.54C192.56 141.39 194.4 135.39 197.77 130.25C196.89 134.62 196.44 139.07 196.44 143.53C196.44 170.27 211.77 191.96 230.7 191.96C232.75 191.94 234.79 191.66 236.78 191.13Z" />
				<path id="Rectángulo 1" class="shp4" d="M236.71 463.93L239.79 463.93L239.79 679.4L236.71 679.4L236.71 463.93Z" />
				<path id="Trazado 5" class="shp5" d="M277.08 689.49L199.41 689.49L232.94 675.47L243.55 675.47L277.08 689.49Z" />
				<path id="Trazado 6" class="shp4" d="M227.03 689.49L199.4 689.49L232.93 674.63L243.55 674.63L270.94 686.93C245.29 679.67 235.17 680.8 227.03 689.49Z" />
				<path id="Trazado 7" class="shp6" d="M318.23 366.55C318.23 366.55 306.47 369.17 303.73 368.72C295.04 367.29 257.55 321.58 257.55 321.58C256.14 292.4 251.95 250.6 261.29 254.84C261.29 254.84 278.58 258.8 304.06 311.09C309.64 322.54 316.06 340.17 320.54 344.38C325.86 349.36 318.23 366.55 318.23 366.55Z" />
				<path id="Trazado 8" class="shp7" d="M318.2 366.5C318.2 366.5 306.17 371.81 303.43 371.36C294.74 369.98 256.78 325.29 256.78 325.29L259.39 291.07C274.43 325.46 306.4 360.08 318.47 352C320.27 350.66 321.48 348.67 321.85 346.46C324.21 353.02 318.2 366.5 318.2 366.5Z" />
				<path id="Trazado 9" class="shp7" d="M286.02 349.73C286.02 349.73 299.99 325.6 313.41 331.22L297.74 356.42L286.02 349.73Z" />
				<path id="Trazado 10" class="shp6" d="M250.78 330.93L242.96 361.24L258.6 395.43L253.01 399.77L167.35 404.45L161.87 395.24L152.76 362.11L157.23 329.84C157.23 329.84 162.87 254.2 170.07 248.19C177.26 242.17 216.84 245.45 224.44 245.18C232.03 244.9 260.88 254.86 260.88 254.86C260.88 254.86 265.47 274.55 263.48 287.23C261.49 299.92 255.85 325.14 255.85 325.14L250.78 330.93Z" />
				<path id="Trazado 11" class="shp8" d="M194.94 243.97L201.09 241.15L213.01 258.93L199.14 268.37L194.94 243.97Z" />
				<path id="Trazado 12" class="shp8" d="M234.31 270.71L222.32 261.95L232.62 245.44L237.92 248.04L234.31 270.71Z" />
				<path id="Trazado 13" class="shp8" d="M213.6 278.53L211.16 281.31L198.37 244.63L200.26 243.71L213.6 278.53Z" />
				<path id="Trazado 14" class="shp8" d="M220.47 277.89L217.24 277.2L231.75 250.77L233.49 251.85L220.47 277.89Z" />
				<path id="Trazado 15" class="shp8" d="M209.65 278.93L212.83 273.59L219.56 275.02L221.8 279.35L215.77 295.38L209.65 278.93Z" />
				<path id="Trazado 16" class="shp8" d="M219.88 397.68C217.32 397.68 214.76 397.89 212.24 398.3C205.55 378.23 205.13 349.61 206.37 326.81C208.71 327.71 211.15 328.33 213.63 328.66C217.23 357.3 225.13 388.94 227.56 398.3C225.02 397.89 222.45 397.68 219.88 397.68L219.88 397.68Z" />
				<path id="Trazado 17" class="shp8" d="M254.73 399.34L174.46 398.96L172.41 388.68C193.47 395.28 256.97 394.9 256.97 394.9L254.73 399.34Z" />
				<path id="Trazado 18" class="shp8" d="M252.28 332.99L245.94 362.03L258.6 395.43L255.13 398.13C250.33 363.33 221.26 330.39 187.65 335.43C157.35 339.97 168.05 380.88 185.37 403.47L167.35 404.45L161.87 395.24L147.64 362.64L153.23 330.27C153.23 330.27 154.98 302.88 160.3 278.47C164.5 281.56 170.39 284.37 172.32 293.91C175.67 310.45 175.74 321.72 224 328.51C251.94 332.5 256.04 322.9 261.99 293.91C262.73 310.37 260.13 319.19 257.33 325.89L252.28 332.99Z" />
				<path id="Trazado 19" class="shp8" d="M208.62 328.93C212.36 303.97 217.59 283.26 217.59 283.26L219.69 285.1C216.89 296.16 215.96 312.23 215.96 328.53C215.3 328.49 214.64 328.41 213.95 328.41C212.17 328.42 210.38 328.6 208.62 328.93Z" />
				<path id="Trazado 20" class="shp9" d="M239.07 474.77C222.88 474.77 209.82 472.56 209.82 469.78C209.82 467 222.88 464.74 239.07 464.74C255.25 464.74 268.32 466.94 268.32 469.72C268.32 472.51 255.25 474.77 239.07 474.77Z" />
				<path id="Trazado 21" class="shp10" d="M274.84 462.34C274.84 464.84 273.85 467.24 272.08 469.01C270.31 470.78 267.91 471.77 265.41 471.77L210.94 471.77C205.79 471.76 201.62 467.57 201.63 462.42C201.63 458.3 204.97 454.95 209.1 454.95L267.49 454.95C269.44 454.96 271.32 455.74 272.69 457.12C274.07 458.51 274.84 460.38 274.84 462.34L274.84 462.34Z" />
				<path id="Trazado 22" class="shp11" d="M274.81 462.32C274.82 467.53 270.62 471.76 265.41 471.77L264.3 471.77C265.5 471.16 266.16 470.5 266.16 469.81C266.16 467.02 255.65 464.75 242.69 464.75C229.73 464.75 219.22 467.02 219.22 469.81C219.22 470.53 219.83 471.16 221.08 471.77L210.94 471.77C208.47 471.77 206.09 470.78 204.35 469.03C202.6 467.27 201.62 464.9 201.63 462.42C201.63 458.3 204.97 454.95 209.1 454.95L267.49 454.95C271.54 454.97 274.82 458.27 274.81 462.32Z" />
				<path id="Trazado 23" fill-rule="evenodd" class="shp4" d="M279.87 620.14C279.87 622.78 261.85 624.93 239.64 624.93C217.43 624.93 199.41 622.77 199.41 620.14C199.41 617.52 217.43 615.39 239.64 615.39C261.86 615.39 279.87 617.5 279.87 620.14ZM239.64 623.01C258.02 623.01 272.92 621.7 272.92 620.14C272.92 618.59 257.97 617.34 239.64 617.34C221.31 617.34 206.37 618.58 206.37 620.14C206.37 621.71 221.26 622.96 239.64 622.96L239.64 623.01Z" />
				<path id="Trazado 24" fill-rule="evenodd" class="shp4" d="M279.87 548.84C279.87 551.47 261.85 553.61 239.64 553.61C217.43 553.61 199.41 551.48 199.41 548.84C199.41 546.2 217.43 544.07 239.64 544.07C261.86 544.07 279.87 546.21 279.87 548.84ZM272.92 548.84C272.92 547.28 257.97 546.04 239.64 546.04C221.31 546.04 206.37 547.28 206.37 548.84C206.37 550.4 221.26 551.64 239.64 551.64C258.02 551.64 272.92 550.4 272.92 548.84Z" />
				<path id="Trazado 25" class="shp12" d="M301.88 460.55L191.84 460.55C191.84 460.55 174.09 456.35 167.29 452.98C152.8 430.54 164.23 397.72 164.23 397.72L253.61 398.28L309.11 412.89L301.88 460.55Z" />
				<path id="Trazado 26" class="shp13" d="M256.35 399L224.75 413.6C202.95 404.79 187.4 401.45 170.74 404.25L171.11 397.9L254.53 397.9L256.35 399Z" />
				<path id="Trazado 27" class="shp13" d="M290.11 460.5C290.11 460.5 218.04 460.32 218.04 460.22C216.37 441.22 241.32 409.63 289.55 418.67L290.11 460.5Z" />
				<path id="Trazado 28" class="shp13" d="M192.38 460.55L191.84 460.55C191.84 460.55 170.12 458.87 163.32 455.51C148.84 433.06 164.23 397.72 164.23 397.72L177.19 397.79C172.59 407.53 170.44 430.81 183.5 450.17C184.05 450.49 191.68 460.27 192.38 460.55Z" />
				<path id="Trazado 29" class="shp12" d="M233.13 615.15L229.12 617.12C229.12 617.12 157.25 448.08 160.87 437.83C164.48 427.59 174.24 415.06 186.41 413.75C198.59 412.45 217.9 458.76 217.9 458.76C217.9 458.76 223.47 591.92 233.13 615.15Z" />
				<path id="Trazado 30" class="shp13" d="M232.22 615.56L229.11 617.08C229.11 617.08 154.61 449.8 158.23 439.49C160.57 432.88 166.57 424.66 173.8 419.29C178.36 451.23 222.44 585.91 232.22 615.56Z" />
				<path id="Trazado 31" class="shp1" d="M200.17 247.79L205.39 207.38L234.82 212.62L234.82 250.78L221.76 268.66L200.17 247.79Z" />
				<path id="Trazado 32" class="shp14" d="M216.18 276.51L213.94 279.31L198.58 244.24L200.41 243.26L216.18 276.51Z" />
				<path id="Trazado 33" class="shp14" d="M234.82 244.94L236.43 246.77L220.13 285.36L217.3 282.68L234.82 244.94Z" />
				<path id="Trazado 34" class="shp15" d="M235.46 268.66L225.67 260.8L235.73 240.59L239.36 246.77L235.46 268.66Z" />
				<path id="Trazado 35" class="shp14" d="M212.26 277.07L215.06 271.74L221.87 272.83L224.42 276.92L219.53 292.79L212.26 277.07Z" />
				<path id="Trazado 36" class="shp14" d="M224.11 398.91C209.72 362.93 218.44 284.37 218.44 284.37L220.8 286.14C217.12 319.43 235.54 394.88 235.54 394.88L234.09 412.86L224.11 398.91Z" />
				<path id="Trazado 37" class="shp12" d="M279.58 455.84C279.58 455.84 290.79 412.26 301.82 411.69C312.85 411.11 319.15 421.19 320.65 431.61C323.27 449.56 295.23 616.4 295.23 616.4L291.35 615.15C296.34 590.97 279.58 455.84 279.58 455.84Z" />
				<path id="Trazado 38" class="shp13" d="M291.35 615.06C296.38 590.97 278.2 457.75 278.2 457.75C277.95 398.88 299.61 418.66 298.12 438.49C295.02 479.87 300.55 583.84 294.32 616.06L291.35 615.06Z" />
				<path id="Trazado 39" class="shp6" d="M112.62 356.37C117.46 350.02 126.79 323.19 131.99 309.27C157.67 240.47 171.83 247.83 171.83 247.83L169.53 323.64C169.53 323.64 146.15 376.73 136.84 381.41C133.85 382.91 120.08 380.08 120.08 380.08C120.08 380.08 106.71 364.13 112.62 356.37Z" />
				<path id="Trazado 40" class="shp7" d="M158.33 347.43C150.99 362.2 141.84 378.82 136.86 381.31C133.87 382.81 120.1 379.98 120.1 379.98C120.1 379.98 106.71 364.08 112.63 356.32C117.48 349.97 126.8 323.14 132 309.22C149.44 262.52 161.55 250.93 167.55 248.28C159.13 257.35 149.39 275.67 141.7 298.08C129.9 332.59 127.56 363.59 136.5 367.45C141.85 369.77 150.05 361.75 158.33 347.43Z" />
				<path id="Trazado 41" class="shp7" d="M127.83 337.33C127.83 337.33 154.19 346.16 151.49 360.48L123.65 350.19L127.83 337.33Z" />
				<path id="Trazado 42" class="shp15" d="M194.39 241.15L200.53 238.35L210.87 256.59L198.58 265.57L194.39 241.15Z" />
				<path id="Trazado 43" class="shp15" d="M289.64 367.69C289.64 367.69 291.88 331.78 315.91 329.81L328.47 348.95C328.47 348.95 327.92 377 297.47 373.91L295.23 369.7L289.64 367.69Z" />
				<path id="Trazado 44" class="shp16" d="M328.47 348.9C328.47 348.9 327.92 376.95 297.47 373.86L295.23 369.65L289.64 367.69C289.64 367.69 290.51 353.92 296.87 342.97C299.7 344.84 303.02 345.83 306.41 345.81C312.95 345.81 318.54 342.34 320.88 337.36L328.47 348.9Z" />
				<path id="Trazado 45" class="shp15" d="M111.14 344.22C111.14 344.22 142.16 339.66 154.34 361.8L142.8 381.63C142.8 381.63 114.16 391.95 103.69 361.42L112.53 354.79L111.14 344.22Z" />
				<path id="Trazado 46" class="shp16" d="M137.52 359.92C142.4 362.32 147.72 363.68 153.16 363.89L142.8 381.61C142.8 381.61 114.16 391.93 103.69 361.4L112.53 354.79L111.14 344.22C114.42 343.83 117.73 343.73 121.02 343.92C121.96 349.14 128.38 355.61 137.52 359.92L137.52 359.92Z" />
				<path id="Trazado 47" class="shp1" d="M306.31 335.58C310.42 328.41 371.5 287.32 371.5 287.32L374.1 289.19C374.1 289.19 334.97 353.57 329.78 358.81C324.59 364.05 307.48 369.55 302.18 364.23C298.08 360.15 302.2 342.75 306.31 335.58Z" />
				<path id="Trazado 48" class="shp17" d="M371.5 287.32L374.1 289.19C374.1 289.19 334.97 353.59 329.78 358.83C324.59 364.08 307.48 369.58 302.18 364.25C298.08 360.12 302.23 342.72 306.31 335.61C306.8 334.89 307.38 334.21 308.02 333.61C306.26 339.86 305.65 346.11 307.87 348.33C312.91 353.41 330.27 348.15 335.72 343.17C339.6 339.61 359.87 306.41 371.25 287.52L371.5 287.32Z" />
				<path id="Trazado 49" class="shp18" d="M396.58 328.57L396.58 353.78C396.58 355.16 396.03 356.49 395.06 357.47C394.08 358.45 392.75 359 391.37 359L380.49 359C377.33 358.99 374.78 356.43 374.78 353.27L374.78 328.14C374.78 315.67 377.11 303.3 381.64 291.68C381.74 291.42 381.79 291.14 381.79 290.87L381.79 266.98L389.6 266.98L389.6 291.29C394.22 303.18 396.58 315.82 396.58 328.57Z" />
				<path id="Trazado 50" class="shp19" d="M381.35 334.78C381.8 343.05 383.47 351.21 386.29 359L380.49 359C377.33 358.99 374.78 356.43 374.78 353.27L374.78 328.14C374.78 315.67 377.11 303.3 381.64 291.68C381.74 291.42 381.79 291.14 381.79 290.87L381.79 266.98L389.6 266.98L389.6 291.29C391.3 295.64 392.69 300.1 393.77 304.64C392.17 302.05 390.43 300.68 388.71 300.8C383.29 301.16 379.99 316.42 381.35 334.78L381.35 334.78Z" />
				<path id="Trazado 51" class="shp20" d="M391.27 297.37C391.58 298.65 393.44 303.39 393.76 304.64C392.16 302.05 390.41 300.68 388.7 300.8C383.28 301.16 379.98 316.42 381.34 334.78C381.8 343.05 383.48 351.21 386.32 359L385.51 359C382.34 351.12 380.44 342.79 379.87 334.32C377.86 310.12 383.06 289.64 391.27 297.37Z" />
				<path id="Trazado 52" class="shp21" d="M389.72 291.29C394.4 303.16 396.81 315.8 396.81 328.57L396.81 353.73C396.68 354.94 396.2 356.09 395.42 357.03C395.8 355.61 396.02 354.15 396.05 352.68L396.05 330.06C396.05 317.3 393.65 304.66 388.97 292.79L388.97 268.47L381.77 268.47L381.77 266.98L389.72 266.98L389.72 291.29L389.72 291.29Z" />
				<path id="Rectángulo 2" class="shp22" d="M375.97 319.9L393.99 319.9L393.99 348.38L375.97 348.38L375.97 319.9Z" />
				<path id="Trazado 53" class="shp21" d="M387.24 292.71C386.96 292.71 386.75 289.91 386.75 286.49C386.75 283.06 386.98 280.26 387.24 280.26C387.5 280.26 387.72 283.05 387.72 286.49C387.72 289.93 387.51 292.71 387.24 292.71Z" />
				<path id="Trazado 54" class="shp23" d="M380.07 329.25C380.03 335.71 380.86 342.14 382.54 348.38L376.02 348.38L376.02 319.9L380.6 319.9C380.24 323.01 380.06 326.13 380.07 329.25L380.07 329.25Z" />
				<path id="Trazado 55" class="shp20" d="M381.79 280.42L381.79 266.98L389.6 266.98L389.6 278.55L381.79 280.42Z" />
				<path id="Rectángulo 3" class="shp24" d="M381.27 266.5L390.21 266.5L390.21 274.17L381.27 274.17L381.27 266.5Z" />
				<path id="Trazado 56" class="shp21" d="M391.78 309.27C391.21 309.48 390.23 308.29 389.6 306.59C388.98 304.9 388.94 303.34 389.52 303.13C390.09 302.92 391.07 304.12 391.7 305.81C392.33 307.5 392.36 309.06 391.78 309.27Z" />
				<path id="Trazado 57" class="shp25" d="M169.06 247.81C169.66 247.64 170.3 247.57 170.92 247.6C174.95 245.22 184.78 244.52 195.03 244.52L194.46 241.14L200.59 238.34L201.29 239.58L205.45 207.38L234.82 212.62L234.82 242.4L235.73 240.56L239.36 246.78L239.14 248.03C242.75 249.02 246.49 250.16 249.82 251.21C246.72 281.52 231.78 294.84 199.41 288.48C180.31 284.73 175.95 252.94 169.06 247.81Z" />
				<path id="Trazado 58" class="shp1" d="M195.91 163.79C195.5 158.81 224.37 130.89 239.2 142.87C254.03 154.85 257.04 233.15 257.04 233.15C231.78 249.11 209.89 239.15 209.89 239.15C205.57 235.13 196.32 168.77 195.91 163.79Z" />
				<path id="Trazado 59" class="shp26" d="M255.55 209.8C256.72 223.18 258.43 235.02 258.43 235.02C243.84 244.47 225.73 246.74 209.26 241.18C204.94 237.16 194.58 169.56 194.17 164.58C194.02 162.78 193.24 163.16 198.64 158.36C201.71 179.75 213.58 208.5 216.66 211.37C216.66 211.37 233.9 219.24 255.55 209.8Z" />
				<path id="Trazado 60" class="shp27" d="M245.37 213.58C252.77 212.21 252.08 221.15 251.24 221.05C243.83 220.26 237.56 228.19 236.15 227.27C231.26 224.05 243.04 214.11 245.37 213.58Z" />
				<path id="Trazado 61" class="shp28" d="M249.56 213.39L250.96 217.02L237.68 221.52L237.12 216.75L249.56 213.39Z" />
				<path id="Trazado 62" class="shp1" d="M206.53 217.8C195.9 215.59 184.52 217.09 187.19 209.08C189.85 201.08 201.27 199.22 203.83 203.62C206.4 208.01 206.53 217.8 206.53 217.8Z" />
				<path id="Trazado 63" class="shp2" d="M235.39 210.26C239.1 201.81 243.49 208.35 243.49 208.35C243.49 208.35 252.24 199.25 255.28 208.35C258.31 217.45 268.77 211.98 268.77 211.98C262.02 228.54 249.54 215.69 246.51 215.57C243.49 215.44 242.8 216.2 238.08 221.96C233.36 227.71 222.16 228.55 220.39 216.97C228.22 220.71 231.68 218.72 235.39 210.26Z" />
				<path id="Trazado 64" class="shp29" d="M202.76 213.64C196.71 212.75 190.31 213.99 191.56 209.39C192.8 204.8 199.14 203.35 200.73 205.73C202.32 208.11 202.76 213.64 202.76 213.64Z" />
				<path id="Trazado 65" class="shp1" d="M202.96 214.3C199.47 212.97 195.49 212.85 196.88 210.28C198.28 207.7 202.21 207.67 202.84 209.31C203.19 210.95 203.23 212.64 202.96 214.3L202.96 214.3Z" />
				<path id="Trazado 66" class="shp30" d="M201.84 433.26C201.15 434.56 200.21 435.69 199.06 436.6L170.02 459.61C169.31 460.16 168.41 460.39 167.53 460.23C166.61 460.07 165.78 459.58 165.21 458.85L156.08 447.22C155.52 446.52 155.23 445.63 155.29 444.73C155.35 443.86 155.77 443.06 156.45 442.5L186.13 419C186.9 418.41 187.79 417.98 188.73 417.75L205.08 413.47C205.82 413.27 206.51 412.92 207.12 412.45L225.27 398.13L229.01 402.96L210.58 417.55C210.2 417.86 209.88 418.24 209.65 418.67L201.84 433.26Z" />
				<path id="Trazado 67" class="shp31" d="M209.93 418.14C209.83 418.29 209.73 418.42 209.65 418.57L205.24 426.85C205.24 425.12 204.55 423.47 203.32 422.26C197.27 416.95 179.06 428 162.63 446.92C161.41 448.33 160.27 449.72 159.13 451.13L156.07 447.22C155.51 446.52 155.23 445.63 155.29 444.73C155.35 443.86 155.77 443.05 156.45 442.5L186.14 419C186.91 418.4 187.79 417.98 188.73 417.75L205.08 413.47C205.82 413.27 206.51 412.92 207.12 412.45L225.21 398.1L226.54 399.8C224.47 401.09 222.48 402.5 220.58 404.04C213.42 409.81 208.79 416.01 209.93 418.14Z" />
				<path id="Trazado 68" class="shp32" d="M208.36 420.99L205.19 426.96C205.19 425.24 204.5 423.58 203.27 422.37C197.22 417.07 179.01 428.11 162.58 447.03C161.36 448.44 160.22 449.83 159.08 451.24L156.59 448L157.65 449.25C158.9 447.82 160.14 446.4 161.39 444.98C181.79 422.56 205.64 409.32 208.36 420.99Z" />
				<path id="Trazado 69" class="shp33" d="M229.01 402.96L210.58 417.56C210.19 417.86 209.88 418.24 209.65 418.67L201.85 433.35C201.16 434.64 200.22 435.77 199.08 436.67L170.02 459.68C169.31 460.23 168.41 460.45 167.53 460.31C167.21 460.25 166.91 460.16 166.63 460.02C167.45 460.12 168.27 459.89 168.92 459.38L197.97 436.38C199.11 435.47 200.06 434.34 200.74 433.05L208.56 418.35C208.8 417.92 209.11 417.54 209.5 417.24L227.92 402.65L224.69 398.53L225.21 398.1L229.01 402.96Z" />
				<path id="Trazado 70" class="shp33" d="M196.83 433.01C196.2 432.68 196.31 431.17 197.11 429.67C197.91 428.16 199.06 427.21 199.7 427.55C200.33 427.88 200.21 429.38 199.42 430.89C198.63 432.37 197.47 433.35 196.83 433.01Z" />
				<path id="Trazado 71" class="shp32" d="M225.32 406.12L219.49 402.5L225.21 398.1L229.01 402.93L225.32 406.12Z" />
				<path id="Trazado 72" class="shp30" d="M228.43 405.24C227.96 405.56 227.33 405.45 226.99 404.99L223.25 400.01C222.85 399.51 222.85 398.79 223.25 398.29L224.08 397.32C224.2 397.18 224.38 397.1 224.57 397.11C224.77 397.11 224.95 397.21 225.06 397.37L229.34 403.42C229.49 403.62 229.54 403.87 229.5 404.12C229.46 404.36 229.31 404.58 229.11 404.73L228.43 405.24Z" />
				<path id="Trazado 73" class="shp33" d="M228.79 404.02C228.48 404.19 227.4 403.07 226.3 401.53C225.21 399.98 224.51 398.56 224.81 398.39C225.11 398.22 226.2 399.32 227.3 400.88C228.38 402.49 229.11 403.84 228.79 404.02Z" />
				<path id="Trazado 74" class="shp34" d="M175.02 452.28L164.14 437.71L185.79 420.59L196.67 435.16L175.02 452.28Z" />
				<path id="Trazado 75" class="shp34" d="M205.82 425.84C202.3 423.2 199.88 419.35 199.03 415.04L205.08 413.45C205.33 413.38 205.58 413.29 205.82 413.18C206.58 415.29 207.99 417.1 209.84 418.36C209.78 418.46 209.65 418.55 209.65 418.65L205.82 425.84L205.82 425.84Z" />
				<path id="Trazado 76" class="shp1" d="M138.88 351.09C145.89 352.46 207.49 405.87 207.49 405.87L206.13 409.51C206.13 409.51 131.3 383.64 126.07 380.1C121.04 376.69 113.55 362.99 116.18 356.77C118.3 351.88 132.18 349.75 138.88 351.09Z" />
				<path id="Trazado 77" class="shp17" d="M207.24 406.57L206.13 409.53C206.13 409.53 131.3 383.66 126.07 380.13C121.04 376.71 113.55 363.02 116.18 356.79C118.23 351.9 132.18 349.77 138.88 351.1C139.03 351.15 139.18 351.2 139.33 351.25C135.75 352.15 132.93 353.58 132.02 355.54C129.17 361.65 136.08 375.61 141.06 379.19C144.8 381.94 185.88 398.18 207.24 406.57Z" />
				<path id="Trazado 78" class="shp6" d="M295.23 606.74C299.99 610.38 306.97 636.19 306.97 636.19C299.15 631.14 287.7 614.03 287.7 614.03C287.7 614.03 290.47 603.09 295.23 606.74Z" />
				<path id="Trazado 79" class="shp6" d="M236.89 615.96C236.89 615.96 228.36 633.74 222.05 639.27C222.05 639.27 226.14 613.12 229.93 609.16C233.71 605.2 236.89 615.96 236.89 615.96Z" />
				<path id="Trazado 80" class="shp1" d="M197.98 399.24C201.25 398.46 215.42 401.81 216.46 403.88C217.69 406.38 213.84 405.3 214.08 408.65C214.31 412 214.43 412.65 215.56 414.05C217.85 416.79 215.96 417.85 213.67 415.81C211.58 413.97 211.77 414.36 211.31 414.67C210.33 415.31 210.93 415.22 212.4 417.55C213.87 419.88 211.95 420.85 210.03 418.47C208.43 416.51 207.17 415.41 206.76 415.58C206.35 415.76 206.63 416.14 207.53 417.86C208.43 419.58 210.31 420.99 209.36 421.45C208.41 421.91 206.1 419.87 204.79 417.45C204.02 416.01 203.25 414.51 202.67 413.52C199.96 404.54 192.85 401.74 197.98 399.24Z" />
				<path id="Trazado 81" class="shp1" d="M384.54 285.51C383.3 285.51 381.67 283.29 380.9 280.53C380.13 277.78 380.52 275.55 381.75 275.55C382.98 275.55 384.6 277.8 385.37 280.53C386.14 283.27 385.77 285.51 384.54 285.51Z" />
				<path id="Trazado 82" class="shp1" d="M386.86 282.64C386.75 281.77 388.04 280.82 389.73 280.52C391.42 280.22 392.88 280.67 393 281.54C393.13 282.41 391.85 283.35 390.15 283.66C388.47 283.96 386.98 283.51 386.86 282.64Z" />
				<path id="Trazado 83" class="shp1" d="M387.21 286.81C387.19 285.94 388.57 285.12 390.28 285C391.98 284.89 393.41 285.48 393.43 286.36C393.44 287.24 392.08 288.04 390.36 288.17C388.65 288.29 387.24 287.68 387.21 286.81Z" />
				<path id="Trazado 84" class="shp1" d="M386.85 290.73C386.83 289.86 388.2 289.06 389.9 288.94C391.61 288.81 393.03 289.42 393.05 290.3C393.08 291.17 391.71 291.96 389.99 292.09C388.28 292.21 386.88 291.6 386.85 290.73Z" />
				<path id="Trazado 85" class="shp35" d="M247.16 185.57C245.34 185.5 243.76 185.56 243.82 185.03C243.88 184.49 245.39 184.13 247.21 184.21C249.03 184.28 250.38 184.77 250.38 185.3C250.33 185.85 248.98 185.65 247.16 185.57Z" />
				<path id="Trazado 86" class="shp35" d="M225.12 189.96C223.23 190.22 221.62 190.65 221.5 189.58C221.37 188.51 222.94 183.61 224.84 183.36C226.73 183.11 228.23 187.58 228.36 188.69C228.48 189.8 227.01 189.7 225.12 189.96Z" />
				<path id="Trazado 87" class="shp36" d="M228.47 174.21C226.9 179.39 212.95 182.86 210.95 180.93C208.96 179 207.5 176.77 209.88 174.49C212.26 172.22 223.7 164.53 226.22 165.78C228.73 167.02 229.19 171.83 228.47 174.21Z" />
				<path id="Trazado 88" class="shp36" d="M239.75 169.75C241.1 167.9 252.15 171.69 254.69 173.05C257.23 174.41 257.04 176.9 256.35 179.27C255.65 181.65 244.41 182.51 241.33 178.17C239.91 176.17 238.41 171.61 239.75 169.75Z" />
				<path id="Trazado 89" class="shp29" d="M227.86 191.5C225.21 195 219.73 200.95 219.15 198.8C218 193.74 227.86 191.5 227.86 191.5Z" />
				<path id="Trazado 90" class="shp29" d="M244.41 188.77C248.03 190.87 252.62 192.73 252.79 191.26C253.09 187.85 244.41 188.77 244.41 188.77Z" />
				<path id="Trazado 91" class="shp1" d="M237.04 175.89C237.04 175.89 250.07 204.33 249.33 206.94C248.58 209.55 240.2 208.81 237.22 204.14C234.25 199.47 237.04 175.89 237.04 175.89Z" />
				<path id="Trazado 92" class="shp29" d="M250.45 207.86C249.79 210.18 243.2 209.85 239.6 206.54C243.04 207.99 246.95 207.86 247.47 205.99C247.99 204.13 241.49 189.12 237.76 180.68C237.97 178.34 238.16 176.82 238.16 176.82C238.16 176.82 251.19 205.25 250.45 207.86Z" />
				<path id="Trazado 93" class="shp37" d="M246.86 228.72C244.67 229.29 242.68 229.11 242.53 228.3C242.38 227.5 243.92 226.37 246.11 225.81C248.3 225.25 250.25 225.44 250.45 226.24C250.66 227.03 249.05 228.14 246.86 228.72Z" />
			</g>
		</g>
	</g>
</svg>