<svg version="1.2" baseProfile="tiny-ps" xmlns="http://www.w3.org/2000/svg" viewBox="0 0 510 435" width="510" height="435">
	<title>Capa 2</title>
	<defs>
		<clipPath clipPathUnits="userSpaceOnUse" id="cp1">
			<path d="m335.89 233.65c2.23 3.08 2.78 7.08 1.45 10.65c-1.34 3.48-3.33 6.68-5.86 9.42c-16.21 18.95-36.72 33.4-55.28 49.97c-22.82 20.45-38.83 41.02-62.06 60.91c-7.99 6.86-12.89 2.87-17.35 0.23c-16.8-9.98-28.25-17.05-41.92-26.16c-2.36-1.56-5.31-3.28-5.31-6.11c0.23-2.1 1.24-4.04 2.83-5.43c16.23-17.97 33.29-35.16 50.38-52.43l15.43-15.63c6.25-6.33 12.48-12.64 18.97-18.71c11.75-11.17 24.44-21.3 37.94-30.28c3.93-2.87 8.4-4.92 13.15-6.02c6.33-0.87 12.76 0.57 18.11 4.06c5.29 3.52 10.13 7.67 14.42 12.36l17.23 17.37l-2.11-4.2z" />
		</clipPath>
		<clipPath clipPathUnits="userSpaceOnUse" id="cp2">
			<path d="m186.14 131.07c2.68 4.57 1.47 10.67-1.68 14.94c-3.41 4.08-7.72 7.33-12.58 9.49c-10.38 5.22-21.19 9.53-32.31 12.87c-4.46 1.73-9.25 2.45-14.03 2.11c-9.4-1.69-15.74-10.58-14.26-20.02c1.31-5.31 4.48-9.97 8.93-13.15c4.42-3.16 9.2-5.78 14.24-7.81c5.51-2.68 11.26-4.81 17.19-6.37c8.08-1.81 16.49-1.45 24.38 1.05c3.97 1.27 8.01 3.28 10.12 6.88z" />
		</clipPath>
	</defs>
	<style>
		tspan { white-space:pre }
		.s0 { fill: #fdaf27 } 
		.s1 { fill: #84a3bc } 
		.s2 { fill: #f0e7d6 } 
		.s3 { fill: #fc9c29 } 
		.s4 { fill: #4f1a02 } 
		.s5 { fill: #ffbf94 } 
		.s6 { fill: #ffffff } 
		.s7 { fill: #230000 } 
		.s8 { fill: #ffcdab } 
		.s9 { fill: #4d6883 } 
		.s10 { fill: #3c5267 } 
		.s11 { fill: #fc906b } 
	</style>
	<g id="Capa 2">
		<g id="Layer 1">
			<path id="Trazado 94" class="s0" d="m181.94 413.07c-16.9-3.2-46.22-10.55-53-11.45c-6.78-0.9-15.31-1.84-17.78-8.3c-2.11-5.49-2.11-14.03 1.54-18.56c47.35-58.99 103.78-111.15 160.43-161.12c6.95-6.15 14.18-12.33 22.82-15.74c11.1-4.43 23.44-3.91 35.42-3.3c10.96 0.55 23.26-3.26 33.42 0.92c5.66 2.34 11.95 2.58 18.09 2.79l87.69 2.97c9.92 0.33 25.98-9.77 28.38 0c3.65 14.61-3.75 24.4-8.99 30.86l-18.17 22.44c-4.61 5.68-9.22 11.37-14.2 16.72c-5.7 6.13-11.88 11.72-18.03 17.58c-42.75 39.68-84.24 80.66-124.47 122.93c-3.57 4.12-7.68 7.73-12.23 10.72c-4.67 2.77-18.01 3.77-23.44 3.09c-23.07-3.01-50.42-3.69-97.49-12.56z" />
			<path id="Trazado 95" class="s1" d="m189.82 6.95c11.68-2.29 23.36 4.41 32.54 11.88c9.18 7.46 18.21 16.15 29.67 18.93c15.31 3.71 33.03-3.59 46.57 4.53c10.55 6.33 14.3 19.71 15.8 31.92c1.5 12.21 1.93 25.26 8.87 35.42c4.65 6.82 12.01 11.86 14.85 19.67c2.11 5.63 1.48 11.72 1.95 17.58c2.27 28.56 29.54 49.25 36.02 77.14c5.25 22.44-4.43 46.76-21.29 62.51c-16.86 15.74-39.89 23.68-62.86 25.86c-15.16 1.45-30.51 0.59-45.55 3.01c-23.77 3.91-45.51 15.63-65.42 29.22c-12.95 8.79-25.63 18.46-40.3 23.95c-14.67 5.49-32.15 6.19-45.16-2.54c-15.37-10.29-21.23-31.1-36.86-40.87c-13.56-8.5-32.68-7.48-43.19-19.53c-8.79-10.06-7.75-25.43-3.54-38.11c4.22-12.68 11.19-24.71 12.58-38.07c1.62-14.49-3.34-28.89-5.68-43.37c-3.09-19.77-0.64-41.18 10.9-57.51c16.1-22.76 47.68-33.29 57.86-59.31c6.35-16.56 3.59-38.42 17.89-49.03c16.99-12.56 41.76 2.6 61.92-3.71c7.77-2.44 14.42-8.01 22.43-9.57z" />
			<path id="Trazado 96" class="s2" d="m130.92 363.37c0.12-0.55 0.9 0.33 0.43 0.61c-0.47 0.27-1.04-0.18-1.39-0.59c-14.51-16.56-16.99-40.32-16.72-62.33c0.27-22.01 2.38-44.77-5.31-65.4c-1.95-5.27-4.3-10.29-9.22-13.05c-2.87-12.56-11.13-23.32-20.9-31.86c-1.44-1.67-3.07-3.16-4.86-4.43c3.61-2.68 5.86-6.74 9.18-9.77c3.48-2.99 7.44-5.37 11.72-7.03c30.3-13.67 63.39-21.39 96.4-25.18c4.23 9.36 9.44 18.24 15.53 26.51c0.57 0.78-1.04-0.72-0.68 0.18c0.78 1.95-0.27 4.18-1.11 6.15c-6.25 14.47-3.09 27.35 1.25 42.41c1.72 6.04 8.13 18.24 13.01 22.15c12.31 9.77 13.22 24.4 18.42 39.26c1.35 3.91 2.5 8.09 0.94 11.72c-1.8 4.3-6.5 6.41-10.51 8.79c-6.17 3.69-11.37 8.81-17.42 12.7c-4.8 2.93-9.83 5.47-15.04 7.58l-28.91 12.85c-10.35 4.55-21.49 9.77-26.68 19.83c-1.91 3.79-3.85 9.16-8.11 8.91z" />
			<path id="Trazado 97" class="s3" d="m181.94 402.99c-16.9-3.2-46.22-10.57-53-11.45c-6.78-0.88-15.31-1.86-17.78-8.3c-2.11-5.45 1.8-11.19 5.43-15.76c47.37-59.04 99.74-113.87 156.55-163.89c6.95-6.13 14.18-12.31 22.82-15.74c11.1-4.41 23.44-3.91 35.42-3.3c10.96 0.55 23.26-3.24 33.42 0.94c5.66 2.34 11.95 2.58 18.09 2.79l87.69 2.97c9.92 0.33 21.7 0.12 28.07 7.81c4.47 5.35-3.44 16.6-8.67 23.07l-18.17 22.43c-4.61 5.66-9.22 11.35-14.2 16.7c-5.7 6.13-11.88 11.72-18.03 17.58c-42.75 39.68-84.24 80.66-124.47 122.93c-3.57 4.11-7.68 7.71-12.23 10.7c-4.67 2.77-18.01 3.79-23.44 3.11c-23.07-2.99-50.42-3.67-97.49-12.58z" />
			<path id="Trazado 98" class="s4" d="m135.45 58.31c0.61 4.79-3.98 8.4-7.7 11.49c-8.09 6.78-14.06 15.74-17.19 25.82c-5.18 16.76-2.03 34.87-4.18 52.27c-0.53 4.04 7.99 9.45 7.29 13.54c-0.7 4.08-13.09 8.83-22.52 15.51c-9.01 6.41-25.06 22.19-30.75 31.66c2.38-18.13 13.95-35.34 22.41-51.55c-11.06 8.23-20.08 18.89-26.37 31.16c2.54-15.82 6.39-28.01 18.83-43.83c-14.55 10.41-23.69 29.83-32.02 41.86c3.75-18.73 6.09-25.61 12.89-37.6c3.3-5.84 7.91-12.17 12.09-18.42l-12.89 13.17c-3.19 3.12-6.13 6.48-8.79 10.06c-2.81 4.08-6.52 8.67-7.81 13.5c0.24-10.26 2-20.43 5.22-30.18c2.15-5.86 5.55-13.52 8.22-19.16c3.14-6.7 6.7-10.35 11.15-17.8c-8.61 5.9-14.53 14.87-20.22 23.62c-5.22 8.03-12.38 20.59-13.46 30.08c-1.23-14.53-1.23-21 5.47-43.83c2.76-7.59 6.07-14.97 9.9-22.07c2.47-4.4 5.51-8.46 9.04-12.07c12.99-13.61 29.96-22.76 48.46-26.16c8.32-1.48 17.09-1.76 25 1.19c3.65 1.35 7.42 3.89 7.91 7.75z" />
			<path id="Trazado 99" class="s5" d="m155.51 117.56c8.42 9.36 13.77 21.08 15.31 33.58c0.88 7.15 0.18 15.12-4.81 20.3c-3.5 3.18-7.77 5.39-12.38 6.41c-7.09 2.3-14.55 3.24-22 2.77c-7.5-0.44-14.56-3.73-19.71-9.2c-1.93-2.36-3.61-4.91-5-7.62c-6.58-11.92-13.67-24.14-18.65-36.84c-0.85 1.57-2.36 2.67-4.12 2.99c-1.74 0.29-3.52 0.29-5.25 0c-1.95-0.21-5.72-1.33-6.93-2.93c-2.9-3.58-3.15-8.64-0.61-12.48c1.66-3.18 10.26-7.5 13.67-6.21c-1.13-0.25-0.78-6.02-0.82-7.19c-0.49-6.24 0.86-12.48 3.91-17.95c3.22-5.3 7.74-9.7 13.13-12.78c12.17-5.86 24.85-3.5 31.06-1.84c2.62 0.72 4.92 5.45 7.25 6.88c1.06 0.65 2.08 1.37 3.05 2.15c7.82 6.44 11.83 16.41 10.67 26.47l-1.23-1.35c3.71-0.23 7.81 1.84 11.53 1.72c4.24-0.48 8.54-0.04 12.6 1.27c1.19 0.37 2.2 1.16 2.85 2.23c1.13 2.27-0.82 4.88-2.93 6.27c-6.11 3.91-13.32 4.08-20.57 3.36z" />
			<path id="Trazado 100" class="s6" d="m91.15 93.24c0.75-3.31 1.98-6.49 3.65-9.43c3.41-4.96 8.75-8.25 14.71-9.06c4.56-0.47 9.14 0.78 12.83 3.5c8.52 5.55 14.67 15.92 12.31 25.8c-1.95 8.65-8.28 14.4-16.72 17.19c-2.84 1.02-5.85 1.53-8.87 1.48c-4.61-0.59-8.85-2.85-11.92-6.35c-2.73-3.41-4.72-7.35-5.86-11.56c-0.81-3.81-0.86-7.74-0.14-11.56v0z" />
			<path id="Trazado 101" class="s7" d="m283.48 313.56c-4.3 6.9-11.47 11.41-17.37 16.99c-5.45 5.2-34.38 32.11-41.94 40.24c-3.91 4.2-6.11 7.27-11.72 8.91c-6.62 1.95-13.52-1.66-19.3-5.43c-10.12-6.56-36.39-26.37-39.83-29.07c-0.91-0.65-1.65-1.49-2.19-2.46c-0.81-3.34-1.33-6.75-1.58-10.18c32.57-31.64 74.81-51.44 119.96-56.24c3.46-0.33 7.36-0.45 9.9 1.95c1.38 1.44 2.29 3.27 2.62 5.24c2.25 9.96-2.13 20.51 1.45 30.04z" />
			<path id="Trazado 102" class="s4" d="m335.89 233.65c2.23 3.08 2.78 7.08 1.45 10.65c-1.34 3.48-3.33 6.68-5.86 9.42c-16.21 18.95-36.72 33.4-55.28 49.97c-22.82 20.45-38.83 41.02-62.06 60.91c-7.99 6.86-12.89 2.87-17.35 0.23c-16.8-9.98-28.25-17.05-41.92-26.16c-2.36-1.56-5.31-3.28-5.31-6.11c0.23-2.1 1.24-4.04 2.83-5.43c16.23-17.97 33.29-35.16 50.38-52.43l15.43-15.63c6.25-6.33 12.48-12.64 18.97-18.71c11.75-11.17 24.44-21.3 37.94-30.28c3.93-2.87 8.4-4.92 13.15-6.02c6.33-0.87 12.76 0.57 18.11 4.06c5.29 3.52 10.13 7.67 14.42 12.36l17.23 17.37l-2.11-4.2z" />
			<g id="Grupo 2" clip-path="url(#cp1)">
				<path id="Trazado 103" class="s7" d="m222.52 365.87c-10.69-8.91-22.58-15.92-34.56-22.91c-10.59-6.15-21.92-11.47-31.25-19.53c-2.23-1.95 1.02-5.16 3.22-3.24c9.77 8.48 21.98 14.03 33.05 20.49c11.49 6.4 22.43 13.75 32.7 21.98c2.27 1.95-0.98 5.1-3.22 3.24l0.06-0.02z" />
				<path id="Trazado 104" class="s7" d="m243.46 346.81c-3.56 0.68-6.31-1.13-9.24-3.03c-5.59-3.61-10.98-7.13-16.92-10.22c-14.47-7.6-29.48-14.65-41.82-25.69c-2.21-1.95 1.04-5.2 3.22-3.24c10.39 9.32 22.84 15.78 35.16 22.07c5.7 2.91 11.37 5.86 16.9 9.08c2.89 1.72 7.81 7.33 11.45 6.62c2.87-0.55 4.1 3.91 1.21 4.4h0.04z" />
				<path id="Trazado 105" class="s7" d="m256.86 330.83c-5.86-1.23-9.59-6.17-14.34-9.36c-8.28-5.61-17.89-9.77-26.86-14.26c-8.59-4.22-17.03-8.75-25.61-12.99c-4.65-2.27-10.18-3.77-12.62-8.73c-1.31-2.64 2.64-4.94 3.91-2.31c2.44 4.94 10.92 6.97 15.49 9.45c7.91 4.32 16.08 8.15 24.14 12.13c7.07 3.48 14.03 7.21 20.9 11.08c5.33 2.99 10.24 9.32 16.17 10.59c2.87 0.61 1.66 5.02-1.21 4.4h0.02z" />
				<path id="Trazado 106" class="s7" d="m276.94 312.56c-13.97-3.56-26.43-14.59-38.35-22.31c-6.06-3.91-12.37-7.5-18.5-11.31c-5.53-3.44-11.72-5.86-16.76-9.88c-2.29-1.95 0.96-5.08 3.22-3.24c4.67 3.79 10.72 6.06 15.84 9.18c6.17 3.77 12.37 7.5 18.5 11.31c11.72 7.31 23.71 18.4 37.27 21.86c1.15 0.39 1.79 1.61 1.47 2.78c-0.33 1.17-1.51 1.88-2.7 1.61v0z" />
				<path id="Trazado 107" class="s7" d="m279.3 282.66c-1.56 7.21-8.44 11.72-13.67 16.21c-8.59 7.23-16.7 14.79-24.61 22.74c-7.91 7.95-14.81 15.86-22.78 23.21c-7.97 7.34-17.05 14.4-24.85 22.43c-2.05 2.11-5.27-1.13-3.22-3.24c12.99-13.36 27.66-24.85 40.55-38.36c6.95-7.31 14.1-14.46 21.49-21.33c6.6-6.15 20.73-13.48 22.76-22.85c0.63-2.87 5.04-1.66 4.41 1.21h-0.08z" />
				<path id="Trazado 108" class="s7" d="m264.01 268.51c-10.51 17.78-29.3 30.16-42.86 45.53c-7.62 8.61-15.39 17.11-22.97 25.77c-3.13 3.69-6.49 7.2-10.04 10.49c-4.08 3.67-9.14 6.35-11.72 11.37c-1.37 2.6-5.31 0.29-3.91-2.31c3.91-7.48 12.7-12.13 18.46-18.23c7.81-8.26 15.3-16.98 22.84-25.51c7.47-8.81 15.44-17.17 23.87-25.06c8.28-7.46 16.64-14.55 22.39-24.28c0.7-0.91 1.98-1.16 2.97-0.57c0.99 0.59 1.39 1.82 0.94 2.88l0.04-0.08z" />
				<path id="Trazado 109" class="s7" d="m248.01 258.98c2.97 4.55-5.2 11.04-7.81 13.67c-7.81 7.6-15.63 13.67-22.25 22.5c-9.26 12.42-20.53 23.5-31.84 33.91c-5.98 5.53-12.31 10.65-18.24 16.21c-2.08 2.3-4.58 4.19-7.36 5.57c-1.22 0.32-2.47-0.39-2.81-1.6l-0.14-0.41c-0.96-2.79 3.46-3.91 4.4-1.21c0.05 0.13 0.1 0.27 0.14 0.41l-2.79-1.6c3.46-1.33 7.13-6.08 9.77-8.44c4.59-4.06 9.26-8.03 13.77-12.15c9.96-9.05 19.33-18.73 28.05-28.97c5.96-7.03 10.9-14.01 17.89-20.08c1.58-1.37 16.49-13.67 15.31-15.51c-1.62-2.48 2.32-4.77 3.91-2.31l0.02 0z" />
				<path id="Trazado 110" class="s7" d="m224.12 264.71c0 7.03-4.08 11.88-9.06 16.45c-7.4 6.9-15.26 12.91-22.44 20.02c-8.42 8.34-17.31 16.25-25.39 24.91c-5.61 6-10.63 12.91-17.33 17.76c-0.39-1.43-0.76-2.85-1.15-4.26h0.51c2.93 0 2.95 4.67 0 4.55h-0.51c-1.02-0.01-1.9-0.7-2.17-1.69c-0.27-0.98 0.15-2.02 1.02-2.55c6.29-4.55 11.27-11.29 16.41-17.03c6.39-7.15 13.67-13.42 20.57-20.14c6.9-6.72 12.89-13.2 20.06-18.97c6.09-4.9 14.96-10.29 14.94-19.05c0.11-1.18 1.1-2.07 2.28-2.07c1.18 0 2.17 0.9 2.28 2.07h0z" />
			</g>
			<path id="Trazado 112" class="s8" d="m268.17 234.25c3.91 15.61 7.01 31.4 9.28 47.33c0.44 2.19 0.44 4.44 0 6.62c-0.45 2.2-2.12 3.94-4.3 4.49c-5.37-11.72-1.56-26.94-9.18-37.47c-1.43 6.7-0.76 13.67-0.88 20.47c-0.12 6.8-1.19 14.04-5.45 19.4c-0.48 0.72-1.16 1.3-1.95 1.66c-1.76 0.42-3.57-0.49-4.28-2.15c-0.64-1.63-0.86-3.4-0.64-5.14c0.49-10.86 1.8-21.67 3.91-32.33c0.37-1.95-3.14-1.95-5.02-1.56c-2.57 7.53-5.08 15.04-7.54 22.54c-0.69 2.6-1.84 5.06-3.38 7.27c-1.62 2.2-4.27 3.39-6.99 3.14c-2.68-10.72 8.59-20.41 8.48-31.47c-5.06 3.91-8.4 9.4-12.37 14.32c-3.97 4.92-9.24 9.51-15.63 9.9c-1.95-4.94 1.13-10.31 4.1-14.71l15.16-22.56c3.85-5.61 8.46-10.67 10.27-16.84c10.84-1.76 18.6-0.63 26.41 7.07z" />
			<path id="Trazado 113" class="s5" d="m173.27 265.53c-0.43-2.6 12.38-12.27 16.9-13.93c12.49-4.83 26.22-5.4 39.07-1.64c6.52 1.74 17.87 5.33 15.43 11.72c-1.64 4.18-21.49-4.96-31.25-1.17c-1.25 0.49-2.6 1.39-2.62 2.72c0 1.8 2.25 2.6 4.04 2.79c7.44 0.82 15.12 0.39 22.33 2.48c7.21 2.09 19.07 7.64 15.63 14.26c-1.82 3.42-24.2-8.44-33.5-5.47c-1.17 0.37-1.04 2.95 0 3.65c2.52 1.82 8.83 2.87 13.26 4.32c6.78 2.25 12.68 6.57 16.88 12.35c0.74 1.25 0.68 2.82-0.17 4.01c-0.85 1.18-2.31 1.76-3.74 1.46c-2.42-0.72-4.69-1.83-6.74-3.3c-7.81-6.52-13.28-8.59-22.97-11.82c1.72 5.86 7.5 9.3 12.42 12.87c4.92 3.57 13.54 11.43 8.58 14.94c-4.18 2.95-15.74-7.62-23.44-12.17c-5.56-3.27-11.77-5.27-18.19-5.86c-2.53-0.32-5.01-0.98-7.36-1.95c-2.02-1.88-3.86-3.94-5.49-6.15c-4.9-11.68-7.07-11.72-9.06-24.1z" />
			<path id="Trazado 114" class="s6" d="m127.33 78.06c-0.03-9.67 6.13-18.28 15.3-21.37c3.32-0.98 6.8-1.32 10.26-1c5.86 0.45 11.99 2.58 15.78 7.13c1.7 2.12 2.95 4.56 3.67 7.17c2.27 7.95 0.72 16.5-4.2 23.15c-5.03 6.55-12.81 10.41-21.08 10.43c-4.34 0-8.61-3.18-11.58-6.35c-2.97-3.16-6.78-6.72-7.5-11c-0.39-2.7-0.61-5.43-0.64-8.17l0 0z" />
			<path id="Trazado 115" class="s4" d="m156.33 77.47c-0.33-1.3-0.22-2.67 0.31-3.91c1.15-2.13 3.44-3.39 5.86-3.22c6.27 0.68 6.11 7.81 4.92 9.92c-1.17 2.17-3.52 3.43-5.98 3.2c-2.76-0.79-4.77-3.15-5.12-6h0z" />
			<path id="Trazado 116" class="s4" d="m125.86 91.34c1.18 2.99 0.41 6.41-1.95 8.59c-2.52 2.05-6.17 1.93-8.54-0.29c-1.61-1.79-2.07-4.32-1.21-6.56c0.91-2.2 2.77-3.87 5.06-4.53c1.87-0.67 3.95-0.29 5.47 1c0.51 0.52 0.9 1.13 1.17 1.8z" />
			<path id="Trazado 117" class="s6" d="m186.14 131.07c2.68 4.57 1.47 10.67-1.68 14.94c-3.41 4.08-7.72 7.33-12.58 9.49c-10.38 5.22-21.19 9.53-32.31 12.87c-4.46 1.73-9.25 2.45-14.03 2.11c-9.4-1.69-15.74-10.58-14.26-20.02c1.31-5.31 4.48-9.97 8.93-13.15c4.42-3.16 9.2-5.78 14.24-7.81c5.51-2.68 11.26-4.81 17.19-6.37c8.08-1.81 16.49-1.45 24.38 1.05c3.97 1.27 8.01 3.28 10.12 6.88z" />
			<path id="Trazado 118" class="s9" d="m344.35 325.69c-3.07-5.53 1.27-12.17 5.61-16.8c15.24-16.37 28.5-24.91 52.74-33.99c3.65-1.37 6.97 1.66 8.17 2.27c1.52 0.94 2.55 2.51 2.79 4.28c0.59 4.23-0.68 8.5-3.48 11.72c-2.81 3.17-6.07 5.92-9.67 8.17l-33.21 22.87c-3.41 2.74-7.36 4.73-11.58 5.86c-4.24 0.82-9.24-0.57-11.37-4.38z" />
			<path id="Trazado 119" class="s10" d="m388.16 254.31c-0.14 4.73 0.63 25.88-0.29 31.45c-0.19 1.7-0.66 3.37-1.39 4.92c-1.63 2.49-3.89 4.51-6.54 5.86l-6.15 3.91c-2.66 1.66-5.96 3.36-8.77 1.95c-2.81-1.41-3.46-5.1-3.75-8.24c-0.57-6.56-1.15-13.11-1.74-19.67c-0.45-2.42-0.19-4.92 0.76-7.19c0.91-1.43 2.11-2.64 3.52-3.57c4.55-3.41 9.41-6.39 14.51-8.89c3.52-1.68 7.07-3.28 9.85-0.53z" />
			<path id="Trazado 120" class="s6" d="m240.98 229.56c-0.2 0 0 0.41 0.12 0.37c0.12-0.04 0.31-0.27 0.37-0.49c0.82-3.03 1.37-6.13 1.95-9.22l5.24-29.97c1.09-6.08 0.98-12.32-0.31-18.36c-0.57-3.68-2.26-7.09-4.84-9.77c-4.51-4.06-11.58-3.48-17.23-1.25c-5.71 2.17-10.91 5.49-15.28 9.77c-2.21 2.21-4.62 4.21-7.19 6c0 0.63-9.77-7.19-12.72-12.99c-2.95-5.8-4.82-12.35-3.89-18.56c0.09-0.52 0.35-1 0.74-1.35c10.37-9.27 21.3-17.9 32.74-25.82c8.87-6.25 18.32-12.17 29.03-14.22c10.7-2.05 22.8 0.51 29.67 8.89c2.97 4.03 5.24 8.53 6.7 13.32c4.3 11.1 7.25 22.67 8.79 34.48c2.97 28.15-7.68 57.02-26.72 77.96c-4.7-2.61-9.67-4.71-14.83-6.25l-7.81-2.21l-4.53-0.33z" />
			<path id="Trazado 121" class="s6" d="m81.93 184.03c4.26-0.53 5.25 0.76 8.91 2.97c3.82 2.72 6.8 6.48 8.58 10.82c4.22 9.77 8.32 17.25 2.44 22.97l-2.68 2.62c-7.01 6.82-5.65 20.2-3.57 29.75c1 4.97 3.12 9.64 6.19 13.67c8.13 10.35 22.72 13.85 35.73 11.72c13.01-2.13 24.71-8.77 35.79-15.9c1.56-1.02 4.88 1.23 6.08 2.66c3.83 4.34 7.03 9.19 9.51 14.42c2.49 5.25 3.4 11.12 2.6 16.88c-9.47 5.86-19.75 10.63-29.69 15.63c-17.25 8.61-35.67 17.37-54.87 15.63c-5.39-0.59-10.72-1.6-15.96-3.01c-3.5-0.69-6.91-1.84-10.12-3.4c-4.2-2.58-7.88-5.91-10.86-9.83c-5.43-6.02-10.17-12.62-14.16-19.67c-7.81-14.96-9.32-32.82-6.09-49.42c2.4-13.89 7.13-27.28 13.99-39.6c5.88-10 16.68-18.73 18.21-18.91z" />
			<path id="Trazado 122" class="s9" d="m269.89 309.11c-4.22-36.06-6.13-59.56-11.04-95.54c-2.68-19.65-5.35-39.38-5.06-59.19c0.12-7.81 0.76-15.88 4.28-22.85c4.38-8.69 12.64-14.67 20.61-20.24c37.64-26.24 76.11-51.22 115.43-74.93c7.81-4.65 17.78-9.24 25.14-4.04c2.64 2.13 4.74 4.86 6.09 7.97c2.59 5.02 4.76 10.24 6.47 15.63c4.43 13.95 4.75 28.32 5.68 42.97c0.85 12.92 1.68 25.84 2.5 38.77c1.21 14.19 1.54 28.45 0.98 42.68c-0.45 7.64-1.47 15.39-4.82 22.25c-2.51 4.66-5.56 9-9.1 12.93c-38.67 46.04-84.18 85.85-134.96 118.04c-2.04 1.49-4.37 2.53-6.84 3.05c-4.43 0.29-8.63-1.99-10.8-5.86c-2.25-3.63-3.73-14.69-4.55-21.64z" />
			<path id="Trazado 123" class="s1" d="m369.8 145.45v-0.92c0.11-1.18 1.1-2.07 2.28-2.07c1.18 0 2.17 0.9 2.28 2.07v0.92c-0.11 1.18-1.1 2.07-2.28 2.07c-1.18 0-2.17-0.9-2.28-2.07h0z" />
			<path id="Trazado 124" class="s1" d="m360.21 149.63h0.57c1.26 0 2.29 1.02 2.29 2.29c0 1.26-1.02 2.29-2.29 2.29h-0.57c-1.26 0-2.29-1.02-2.29-2.29c0-1.26 1.02-2.29 2.29-2.29h0.57c1.26 0 2.29 1.02 2.29 2.29c0 1.26-1.02 2.29-2.29 2.29h-0.57c-1.26 0-2.29-1.02-2.29-2.29c0-1.26 1.02-2.29 2.29-2.29l0 0z" />
			<path id="Trazado 125" class="s1" d="m346.5 156.94h0.88c1.26 0 2.29 1.02 2.29 2.29c0 1.26-1.02 2.29-2.29 2.29h-0.92c-1.26 0-2.29-1.02-2.29-2.29c0-1.26 1.02-2.29 2.29-2.29h0.04z" />
			<path id="Trazado 126" class="s1" d="m398.79 302.76c-15.63 11.86-33.07 37.11-55.26 24.65c-0.91-0.7-1.16-1.98-0.57-2.97c0.59-0.99 1.82-1.39 2.88-0.94c19.53 11.04 36.84-14.16 50.67-24.65c2.34-1.8 4.61 2.19 2.29 3.91z" />
			<path id="Trazado 127" class="s1" d="m70.33 279.16c3.37-8.91 9.92-16.26 18.38-20.63c4.14-2.3 18.65-7.6 21.8-1.52c0.34 0.63 0.38 1.38 0.09 2.03c-0.28 0.66-0.85 1.15-1.54 1.33l-0.76 0.37c-2.48 1.58-4.77-2.36-2.31-3.91c0.57-0.38 1.2-0.66 1.86-0.84l-1.37 3.36c-0.51-0.96-8.24 0.49-8.81 0.61c-3.61 0.94-7.03 2.51-10.1 4.65c-5.93 3.71-10.46 9.29-12.87 15.86c-0.96 2.77-5.37 1.58-4.4-1.21l0.02-0.1z" />
			<path id="Trazado 128" class="s1" d="m88.59 290.43c-4.73-12.5 5.72-22.91 14.28-30.53c2.19-1.95 5.43 1.25 3.24 3.22c-7.31 6.5-17.21 15.28-13.13 26.08c1.05 2.77-3.36 3.91-4.4 1.23z" />
			<path id="Trazado 129" class="s1" d="m249.49 136.17c-10.12 8.42-8.07 20.26-4.9 31.57c0.26 1.19-0.45 2.37-1.61 2.7c-1.17 0.33-2.39-0.32-2.78-1.47c-3.61-12.89-5.29-26.57 6.06-36.02c2.25-1.95 5.51 1.35 3.24 3.22v0z" />
			<path id="Trazado 130" class="s1" d="m235.23 143.03c-3.22 6.9-1.43 14.36 3.3 20.06c1.95 2.25-1.35 5.49-3.24 3.22c-6.13-7.42-8.17-16.7-3.91-25.59c1.25-2.68 5.18-0.35 3.91 2.31h-0.06z" />
			<path id="Trazado 131" class="s1" d="m250.76 163.03c-1.33 2.87-3.16 5.66-3.34 8.89c-0.18 3.22-4.73 2.95-4.57 0c0.21-4.12 2.27-7.52 3.91-11.19c1.23-2.68 5.16-0.35 3.91 2.31h0.1z" />
			<path id="Trazado 132" class="s1" d="m102.21 279.77c-0.47-4.84 1.76-8.89 3.91-13.03c1.39-2.58 5.33-0.27 3.91 2.32c-1.86 3.46-3.75 6.66-3.34 10.7c0.27 2.93-4.28 2.91-4.57 0l0.1 0z" />
			<g id="Grupo 3" clip-path="url(#cp2)">
				<path id="Trazado 133" class="s4" d="m168.56 111.95c3.68 6.02 6.65 12.44 8.87 19.14c2.85 8.13 7.81 15.63 7.81 24.48c-0.11 1.18-1.1 2.07-2.28 2.07c-1.18 0-2.17-0.9-2.28-2.07c-0.1-8.34-5.31-15.43-7.68-23.26c-1.99-6.38-4.81-12.47-8.4-18.11c-1.58-2.5 2.36-4.79 3.91-2.31l0.04 0.06z" />
				<path id="Trazado 134" class="s4" d="m158.52 113.77c7.81 16.64 11.27 34.93 15.74 52.61c0.23 1.17-0.48 2.33-1.63 2.65c-1.15 0.32-2.36-0.31-2.76-1.44c-4.38-17.27-7.66-35.26-15.3-51.43c-1.25-2.64 2.7-4.96 3.91-2.31l0.04-0.08z" />
				<path id="Trazado 135" class="s4" d="m147.09 116.52c4 8.58 5.04 20.1 7.01 29.4c2.46 11.72 5.55 23.23 5.63 35.16c-0.11 1.18-1.1 2.07-2.28 2.07c-1.18 0-2.17-0.9-2.28-2.07c0-10.57-2.62-20.73-4.86-31c-1.15-5.25-2.29-10.49-3.57-15.63c-1.29-5.14-1.45-11.02-3.59-15.63c-1.23-2.66 2.72-4.98 3.91-2.31h0.04z" />
				<path id="Trazado 136" class="s4" d="m133.64 122.54c2.83 7.34 3.38 15.74 5.86 23.44c3.46 10.47 5.53 21.31 8.71 31.88c0.33 1.22-0.38 2.48-1.6 2.81c-1.22 0.33-2.48-0.38-2.81-1.6c-2.89-9.61-4.86-19.53-7.81-29.07c-1.45-4.73-3.09-9.36-4.38-14.12c-1.05-4.1-0.88-8.24-2.38-12.13c-1.05-2.75 3.28-3.93 4.41-1.21z" />
				<path id="Trazado 137" class="s4" d="m120.92 128.63c0 19.53 11.72 36.67 12.79 56.16c0.18 2.95-4.4 2.93-4.57 0c-1.13-19.48-12.85-36.45-12.78-56.16c0.11-1.18 1.1-2.07 2.28-2.07c1.18 0 2.17 0.9 2.28 2.07l0 0z" />
				<path id="Trazado 138" class="s4" d="m192.63 128.63c-8.24 0-15.78 4.08-23.44 6.92c-8.48 3.16-16.53 7.42-24.89 10.9c-14.4 6.04-33.15 7.44-45.01 18.54c-2.15 1.95-5.39-1.23-3.22-3.22c11.04-10.31 27.15-12.4 40.81-17.17c10.65-3.75 20.69-9.24 31.25-13.46c7.81-3.16 15.94-7.01 24.57-7.07c1.26 0 2.29 1.02 2.29 2.29c0 1.26-1.02 2.29-2.29 2.29h-0.08z" />
			</g>
			<path id="Trazado 140" class="s11" d="m86.52 114.61c1.46 2.64 1.39 5.87-0.2 8.44c-1.95 3.01-6.64 4.61-9.77 2.31c-2.93-2.11-3.73-6.13-1.84-9.2c1.45-2.88 4.67-4.41 7.81-3.71c2.45 0.67 3.9 3.21 3.22 5.66c-0.68 2.43-3.19 3.85-5.63 3.2c-0.45 0-0.18 0 0.78 0c-0.45 0-0.2 0 0.78-0.12c-0.63 0.12 1.23-0.66 0.43-0.16c1.21-0.76 0.66-0.57 0.33-0.2c-0.33 0.37 0.74-1.13 0.23-0.25c-0.51 0.88 0.35-1 0.14-0.35c-0.21 0.64-0.14 1.25 0-0.43c0 0.94-0.23-1.13-0.1-0.51c0.14 0.63 0 0.2-0.29-0.7v0.12c-0.29-0.52-0.71-0.95-1.23-1.25c0.37 0.21 0.16 0.14-0.66-0.25c0.43 0.12 0.2 0.1-0.68 0h0.45c-0.84 0.16-1.04 0.18-0.57 0c0.47-0.18 0.27 0-0.55 0.25c0.39-0.25 0.23-0.12-0.47 0.37c0.53-0.45-0.66 1.11-0.16 0.2c0.35-0.61-0.41 1.27-0.14 0.23c0.18-0.74-0.1 1.37 0 0.29c0.1-1.07 0.2 1.04 0 0.33c0-0.1 0-0.21-0.1-0.31c-0.2-0.7 0.57 1.13 0.21 0.55c-1.25-2.18-0.52-4.96 1.64-6.25c2.18-1.24 4.96-0.51 6.25 1.64l0.08 0.1z" />
			<path id="Trazado 141" class="s11" d="m256.33 289.22c0.75 0.56 1.2 1.45 1.2 2.39c0 0.94-0.44 1.83-1.2 2.39c-0.66 0.64-1.63 0.82-2.48 0.48c-0.85-0.35-1.41-1.16-1.43-2.08c-0.28-1.64 0.61-3.27 2.15-3.91c0.7-0.2 1.45-0.07 2.03 0.37c0.58 0.43 0.92 1.12 0.92 1.84v0c0 1.26-1.02 2.29-2.29 2.29c-1.26-0.01-2.27-1.03-2.29-2.29v0l2.89 2.21v0l1-0.59c-0.23 0.2 0.35-0.55 0-0.12c0.04-0.11 0.04-0.24 0-0.35c-0.02 0.18-0.02 0.37 0 0.55l-3.91-1.62c0.43-0.42 0.39-0.18-0.12 0.7c0 0.39 0 0.49 0 0.31l1.05 1.37v0c-1.06-0.66-1.42-2.03-0.82-3.13c0.64-1.09 2.04-1.46 3.13-0.82l0.16 0z" />
			<path id="Trazado 142" class="s11" d="m235.08 281.13h0.47c1.26 0 2.29 1.02 2.29 2.29c0 1.26-1.02 2.29-2.29 2.29h-0.47c-1.26 0-2.29-1.02-2.29-2.29c0-1.26 1.02-2.29 2.29-2.29z" />
			<path id="Trazado 143" class="s11" d="m239.94 256.25l-0.7-0.21c1.25 0.02 2.26 1.03 2.29 2.29c0 0.6-0.24 1.18-0.67 1.61c-0.43 0.43-1.01 0.66-1.61 0.66c-0.96-0.03-1.87-0.42-2.54-1.11c-1.95-2.15 1.23-5.39 3.24-3.22z" />
			<path id="Trazado 144" class="s11" d="m251.45 278.71v0l-0.59-1.02v0l-1.62-0.66v0l-1.15 0.31v0l-0.82 0.82c0.57 1.95 0.51 2.54-0.18 1.84c-0.73-0.73-0.88-1.86-0.35-2.75c0.64-1.08 2.03-1.45 3.13-0.82c0.34 0.14 0.66 0.34 0.92 0.61c0.73 0.73 0.88 1.86 0.35 2.75l0.18-0.39c-0.51 0.91-1.56 1.35-2.57 1.09c-1-0.26-1.71-1.17-1.71-2.21c0.08-0.24 0.18-0.46 0.29-0.68c0.14 0.94 0.25 1.95 0.37 2.77c0.51 0.53 0.35 0.29 0 0.12l2.75-3.59c1.18 0.83 1.56 2.41 0.9 3.69c-0.44 0.72-1.23 1.15-2.07 1.13c-1.18 0.02-2.19-0.83-2.35-2c-0.16-1.17 0.57-2.27 1.71-2.57c1.22-0.33 2.47 0.39 2.81 1.6l0-0.04z" />
			<path id="Trazado 145" class="s11" d="m245.14 300.32h-0.92c-1.26 0-2.29-1.02-2.29-2.29c0-1.26 1.02-2.29 2.29-2.29h0.92c1.26 0 2.29 1.02 2.29 2.29c0 1.26-1.02 2.29-2.29 2.29z" />
			<path id="Trazado 146" class="s11" d="m231.52 311.14l1.95 1.95c-1.23 0.34-2.51-0.37-2.87-1.6c-0.37-1.21 0.31-2.5 1.52-2.87c1.04-0.32 2.18-0.06 2.99 0.66c0.75 0.83 1.03 1.99 0.72 3.07c-0.4 1.13-1.61 1.76-2.76 1.44c-1.15-0.32-1.87-1.47-1.63-2.65l0.08 0z" />
			<path id="Trazado 147" class="s1" d="m165.01 176.7c-15.63 11.6-39.61 10.29-54.83-1.37c-2.29-1.78 0-5.74 2.31-3.91c14.08 10.78 35.79 12.11 50.22 1.37c2.36-1.76 4.63 2.21 2.31 3.91z" />
			<path id="Trazado 148" class="s1" d="m417.7 35.26c-6.21-8.69-31.65 8.34-38.09 12.21c-9.77 5.86-18.6 13.5-28.4 19.53c-8.4 5.16-18.03 9.55-25.39 16.23c-2.19 1.95-5.43-1.25-3.24-3.24c8.26-7.48 18.99-12.44 28.42-18.24c10.76-6.6 20.37-14.87 31.25-21.17c8.58-4.94 30.96-19.24 39.28-7.6c1.7 2.4-2.27 4.67-3.91 2.31l0.08-0.02z" />
			<path id="Trazado 149" class="s9" d="m276.39 97.83c-9.1-10.98-26.06-8.26-37.95-3.98c-2.77 1-3.91-3.42-1.21-4.4c13.4-4.82 32.23-7.13 42.41 5.14c1.95 2.27-1.37 5.51-3.24 3.24h0z" />
			<path id="Trazado 150" class="s9" d="m276.04 82.75c-5.24-8.09-16.82-5.86-24.83-4.43c-2.87 0.55-4.1-3.91-1.21-4.4c10.35-1.95 23.44-3.65 29.98 6.52c1.6 2.48-2.34 4.77-3.91 2.31h-0.04z" />
			<path id="Trazado 151" class="s9" d="m42.84 266.99c0.29 15.08 4.3 29.95 15.76 40.4c2.19 1.95-1.05 5.2-3.22 3.22c-12.33-11.23-16.8-27.35-17.11-43.62c0-1.26 1.02-2.29 2.29-2.29c1.26 0 2.29 1.02 2.29 2.29z" />
			<path id="Trazado 152" class="s9" d="m32.88 281.6c-0.48 7.53 2.26 14.91 7.54 20.3c2.07 2.09-1.15 5.33-3.22 3.22c-6.12-6.22-9.35-14.73-8.89-23.44c0.21-2.93 4.77-2.95 4.57 0v-0.08z" />
		</g>
	</g>
</svg>