<svg version="1.2" baseProfile="tiny-ps" xmlns="http://www.w3.org/2000/svg" viewBox="0 0 270 319" width="270" height="319">
	<title>Capa 2</title>
	<defs>
		<clipPath clipPathUnits="userSpaceOnUse" id="cp1">
			<path d="M120.82 277.08C123.77 278.59 126.86 280.8 127.24 284.11C115 288.17 102.09 289.84 89.22 289.04C88.34 289.05 87.46 288.85 86.67 288.46C85.09 287.53 84.81 285.38 84.81 283.54C84.77 280.13 85.16 276.74 85.95 273.43C86.02 272.99 86.22 272.59 86.53 272.28C86.83 272.07 87.19 271.95 87.56 271.93C98.91 270.03 110.57 271.83 120.82 277.08L120.82 277.08Z" />
		</clipPath>
		<clipPath clipPathUnits="userSpaceOnUse" id="cp2">
			<path d="M180.22 285.61C179.34 286.07 178.37 286.34 177.39 286.41L164.96 288.22C160.73 288.82 156.44 289.42 152.22 288.87C149.83 288.51 147.13 287.51 146.43 285.21C145.89 283.38 146.87 281.41 148.18 280.02C150.61 277.45 154.04 276.15 157.37 274.99C161.11 273.56 164.99 272.56 168.95 272.02C172.93 271.49 176.98 272.21 180.53 274.08C181.02 274.33 181.46 274.67 181.84 275.07C182.79 276.18 182.76 277.78 182.69 279.23C182.58 281.61 182.26 284.37 180.22 285.61L180.22 285.61Z" />
		</clipPath>
	</defs>
	<style>
		tspan { white-space:pre }
		.shp0 { fill: #3c5267 } 
		.shp1 { fill: #f0e7d6 } 
		.shp2 { fill: #fdaf27 } 
		.shp3 { fill: #fc9c29 } 
		.shp4 { fill: #84a3bc } 
		.shp5 { fill: #4d6883 } 
		.shp6 { fill: #4f1a02 } 
		.shp7 { fill: #ffbf94 } 
		.shp8 { fill: #fc906b } 
		.shp9 { fill: #d3ccc1 } 
		.shp10 { fill: #ffffff } 
	</style>
	<g id="Capa 2">
		<g id="Layer 1">
			<path id="Trazado 228" class="shp0" d="M94.61 17.05C99.66 9.7 107.71 4.69 116.28 2.2C124.86 -0.28 138.79 -0.82 152.35 2.71C169.74 7.26 173.37 20.33 175.33 25.26C180.46 38.18 175.43 54.53 165.02 63.76C154.6 73 139.78 75.74 125.87 75.79C118.14 75.81 109.97 74.64 103.9 69.85C101.05 67.61 99.09 67.37 93.85 59.87C88.49 52.19 87.95 44.68 88.09 35.28C88.23 25.89 92.78 16.24 101 11.68L94.61 17.05Z" />
			<path id="Trazado 229" class="shp1" d="M113.56 68.08C111.05 66.99 108.76 65.44 106.81 63.52C100.91 57.86 97.36 50.19 96.86 42.03C96.44 33.88 99.09 25.86 104.31 19.58C107.74 15.57 112.01 12.36 116.8 10.17C122.11 7.61 127.92 6.23 133.81 6.15C143.52 6.15 150.27 8.48 152.93 9.81C156.86 11.77 161.3 16.38 163.05 18.52C168.89 25.67 169.55 35.68 167.4 44.66C166.47 48.05 164.75 51.17 162.39 53.77C153.08 64.75 138.09 69.65 123.7 69.65C120.25 69.78 116.81 69.25 113.56 68.08L113.56 68.08Z" />
			<path id="Trazado 230" class="shp0" d="M104.4 30.67C102.99 29.59 104.39 27.14 105.83 28.25C113.45 34.07 124.5 33.87 131.7 40.03C134.94 42.8 141.28 35.73 143.99 33.94C148.88 30.68 153.72 27.34 158.38 23.75C159.79 22.64 161.21 25.09 159.79 26.17C153.91 30.69 147.46 34.48 141.63 39.06C139 41.15 136.14 44.12 132.56 43.72C130.67 43.5 129.66 41.49 128.03 40.77C124.83 39.3 121.51 38.19 118.2 37.04C113.42 35.38 108.47 33.74 104.4 30.63L104.4 30.67Z" />
			<path id="Trazado 231" class="shp0" d="M133.34 11.43C133.34 12.14 132.81 12.74 132.1 12.82L131.72 12.82C131.01 12.74 130.47 12.14 130.47 11.43C130.47 10.71 131.01 10.11 131.72 10.03L132.65 10.03C133.36 10.11 133.89 10.71 133.89 11.43C133.89 12.14 133.36 12.74 132.65 12.82L132.65 12.82C131.94 12.74 131.4 12.14 131.4 11.43C131.4 10.71 131.94 10.11 132.65 10.03L132.65 10.03C133.36 10.11 133.89 10.71 133.89 11.43C133.89 12.14 133.36 12.74 132.65 12.82L131.72 12.82C131.01 12.74 130.47 12.14 130.47 11.43C130.47 10.71 131.01 10.11 131.72 10.03L132.1 10.03C132.81 10.11 133.34 10.71 133.34 11.43Z" />
			<path id="Trazado 232" class="shp0" d="M161.21 36.18C161.21 35.46 161.75 34.86 162.46 34.78C163.16 34.86 163.7 35.46 163.7 36.18C163.7 36.89 163.16 37.49 162.46 37.57C161.75 37.49 161.21 36.89 161.21 36.18Z" />
			<path id="Trazado 233" class="shp0" d="M102.31 39.82C101.6 39.74 101.07 39.14 101.07 38.42C101.07 37.71 101.6 37.11 102.31 37.03C103.02 37.11 103.55 37.71 103.55 38.42C103.55 39.14 103.02 39.74 102.31 39.82L102.31 39.82Z" />
			<path id="Trazado 234" class="shp0" d="M115.68 17.06C115.68 16.34 116.22 15.74 116.93 15.66C117.63 15.74 118.17 16.34 118.17 17.06C118.17 17.77 117.63 18.37 116.93 18.45C116.22 18.37 115.68 17.77 115.68 17.06Z" />
			<path id="Trazado 235" class="shp0" d="M105.68 26.36C104.97 26.28 104.44 25.68 104.44 24.96C104.44 24.25 104.97 23.65 105.68 23.56L106.24 23.56C106.95 23.65 107.48 24.25 107.48 24.96C107.48 25.68 106.95 26.28 106.24 26.36L105.68 26.36L105.68 26.36Z" />
			<path id="Trazado 236" class="shp0" d="M145.16 14.67C144.61 14.12 144.61 13.23 145.16 12.68C145.71 12.13 146.6 12.13 147.15 12.68L147.71 13.25C148.19 13.81 148.16 14.64 147.64 15.16C147.12 15.69 146.28 15.72 145.73 15.23L145.16 14.67L145.16 14.67Z" />
			<path id="Trazado 237" class="shp0" d="M158.52 18.6C159.23 18.6 159.83 19.13 159.91 19.84L159.91 20.41C159.83 21.12 159.23 21.65 158.52 21.65C157.8 21.65 157.2 21.12 157.12 20.41L157.12 19.84C157.2 19.13 157.8 18.6 158.52 18.6Z" />
			<path id="Trazado 238" class="shp0" d="M156.72 48.54C156.72 47.83 157.25 47.23 157.96 47.14C158.67 47.23 159.2 47.83 159.2 48.54C159.2 49.25 158.67 49.86 157.96 49.94C157.25 49.86 156.72 49.25 156.72 48.54Z" />
			<path id="Trazado 239" class="shp0" d="M149.41 56.97C149.41 56.26 149.94 55.66 150.65 55.58L151.22 55.58C151.93 55.66 152.46 56.26 152.46 56.97C152.46 57.69 151.93 58.29 151.22 58.37L150.65 58.37C149.94 58.29 149.41 57.69 149.41 56.97Z" />
			<path id="Trazado 240" class="shp0" d="M102.31 50.5C101.6 50.42 101.07 49.82 101.07 49.11C101.07 48.39 101.6 47.79 102.31 47.71C103.02 47.79 103.55 48.39 103.55 49.11C103.55 49.82 103.02 50.42 102.31 50.5L102.31 50.5Z" />
			<path id="Trazado 241" class="shp0" d="M118.61 65.12C117.9 65.04 117.37 64.44 117.37 63.72C117.37 63.01 117.9 62.41 118.61 62.33C119.32 62.41 119.85 63.01 119.85 63.72C119.85 64.44 119.32 65.04 118.61 65.12L118.61 65.12Z" />
			<path id="Trazado 242" class="shp2" d="M41.3 241.39L33.17 234.72C29.31 231.55 25.38 228.36 22.57 224.17C17.84 217.24 14.75 204.55 14.35 196.16C13.85 185.64 13.79 177.54 16.88 167.49C21.97 150.92 31.25 135.69 44.71 124.77C55.13 116.31 67.15 106.77 77.6 98.34C89.7 88.57 99.56 80.75 103.73 65.76C104.86 61.72 104.93 54.39 104.02 50.3C106.82 52.69 112.12 57.87 112.99 61.47C113.76 65.07 114.02 68.76 113.78 72.43C113.65 79.48 112.47 86.48 110.28 93.19C117.98 87.41 121.58 78.45 124.11 69.16C128.16 54.27 130.63 37.9 124.42 23.79C132.31 28.01 137.99 35.67 141.24 44.04C144.49 52.42 145.68 61.42 146.71 70.33C147.69 78.48 147.71 86.7 146.78 94.85C146.67 95.78 146.11 99.74 147.03 99.74C149.27 99.74 166.42 84.85 168.15 66.13C177.81 72.92 184.3 83.33 186.12 94.99C187.42 103.98 185.94 113.74 190.4 121.64C195.24 130.22 205.42 133.84 214.14 138.4C226.54 144.89 237.16 154.32 245.06 165.86C249.18 171.88 252.51 178.64 253.12 185.89C254.13 197.47 253.07 209.13 250 220.34C247.33 229.77 240.69 235.93 235.8 244.44C228.54 257.14 222.69 274.23 208.43 277.54C194.17 280.85 177.24 282.12 162.61 281.47C140.27 280.48 117.47 281.91 95.15 280.91C84.84 280.49 68.78 266.41 59.63 261.69C51.25 257.39 44.19 250.35 41.3 241.39Z" />
			<path id="Trazado 243" class="shp3" d="M58.02 217.55C51.89 218.06 45.74 215.62 41.09 211.61C36.5 207.48 33.06 202.24 31.08 196.39C28.45 189.24 27.6 181.55 28.61 173.99C30.11 163.11 36.54 145.57 45 138.54C58.52 127.29 67.76 117.74 93.62 99.75C91.64 104.16 78.72 135.45 85.24 141.88C87.56 144.17 90.4 145.94 93.66 145.92C102.13 145.88 108.85 138.95 113.97 132.2C117.39 127.72 118.82 121.18 121.15 116.06C125.6 106.25 131.75 88.56 132.68 77.83C139.42 93.29 138.86 96.66 139.7 103.69C140.48 110.2 141.63 117.51 143.63 116.72C145.59 115.84 147.34 114.55 148.76 112.94C154.66 106.99 166.12 92.68 170.34 80.36C178.21 93.29 177.4 99.33 178.21 104.56C181 122.55 176.4 126.99 177.93 133.51C181.02 146.72 183.29 147.78 185.51 152.34C187.52 149.26 189.31 146.04 190.89 142.72C192.57 139.07 194.27 134.49 193.14 132.04C204.31 137.98 216.52 147.87 223.26 158.61C226.99 164.6 228.95 171.53 230.46 178.44C231.35 182.04 231.84 185.73 231.9 189.44C231.69 193.67 230.97 197.86 229.74 201.91C226.51 214.14 222.29 226.92 212.6 235.05C203.29 242.87 190.64 245.04 178.57 246.23C157.37 248.23 135.88 247.91 115.06 243.56C94.25 239.22 74.64 230.81 58.02 217.55Z" />
			<path id="Trazado 244" class="shp4" d="M60.29 231.64C57.18 240.27 56.7 249.62 58.9 258.52C58.97 258.93 59.15 259.31 59.43 259.61C59.83 259.9 60.31 260.04 60.8 260.01L77.32 260.94C81.84 261.19 86.46 261.47 90.68 263.14C93.93 264.57 96.99 266.4 99.79 268.59C101.31 269.67 102.97 271.02 103.07 272.88C103.23 275.74 99.86 277.24 97.35 278.63C91.89 281.65 91.79 282.35 87.7 287.05C79.1 297.01 62.2 297.11 49.17 295.62C45.78 295.08 42.36 294.79 38.93 294.75C35.92 294.83 32.97 295.53 29.97 295.76C25.81 296.08 21.63 295.56 17.67 294.25C15.2 293.57 12.95 292.24 11.16 290.41C9.11 287.88 8.14 284.66 8.43 281.42C8.72 278.22 9.48 275.09 10.69 272.11C14.56 261.5 19.6 251.12 27.16 242.8C31.65 237.98 36.49 233.48 41.62 229.35C48.53 224.05 66 218.77 74.6 219.98C74.3 223.11 61.37 228.63 60.29 231.64Z" />
			<path id="Trazado 245" class="shp4" d="M196.28 253.06C198.56 251.88 200.32 249.89 201.19 247.47C205.84 236.51 199.07 224.03 200.19 212.18C200.19 211.75 200.33 211.33 200.58 210.98C201.12 210.35 202.13 210.54 202.92 210.81C208.13 212.7 213.08 215.24 217.66 218.35C235.34 229.7 251.38 243.75 258.62 263.44C260.63 268.92 260.42 278.77 256.76 283.3C254.3 286.34 248.2 289.59 244.38 290.42C217.19 296.39 189.46 303.59 167.93 285.93C160.35 279.72 159.09 269.32 151.27 263.38C163.05 256.85 176.34 253.53 189.81 253.78C192 253.81 194.28 253.93 196.28 253.06Z" />
			<path id="Trazado 246" class="shp5" d="M63.1 264.88C64.69 265.75 63.28 268.18 61.69 267.31C52.7 262.45 43.82 258.9 33.54 262.4C31.85 262.97 31.08 260.26 32.78 259.68C43.75 255.96 53.49 259.68 63.1 264.88L63.1 264.88Z" />
			<path id="Trazado 247" class="shp5" d="M203.27 262.91C206.49 252.4 228.85 251.28 235.97 257.8C237.32 259.02 235.33 261 233.99 259.78C228.47 254.76 208.47 255.53 205.97 263.66C205.44 265.38 202.74 264.65 203.27 262.91Z" />
			<path id="Trazado 248" class="shp5" d="M209.27 266.18C207.66 267.02 206.24 264.6 207.85 263.75C214.72 260.18 226.04 259.04 231.47 265.66C232.62 267.05 230.64 269.05 229.49 267.65C224.88 262.04 215.07 263.15 209.27 266.18L209.27 266.18Z" />
			<path id="Trazado 249" class="shp2" d="M82.14 67.32C82.48 70.08 82.24 72.88 81.44 75.55C78.72 83.25 69.25 86.25 64.6 92.97C64.4 93.35 64.07 93.65 63.67 93.82C63 94 62.41 93.35 62.04 92.77C57.18 85.1 58.92 73.94 65.88 68.11C70.7 64.09 77.76 62.09 80.13 56.3C81.16 59.89 81.83 63.59 82.14 67.32Z" />
			<path id="Trazado 250" class="shp2" d="M36.28 113.59C37.08 120.31 32.4 130.27 26.16 132.92C23.37 129.98 22.09 122.68 21.31 118.68C20.81 116.07 20.31 113.25 21.31 110.78C23.93 104.26 26.81 103.25 27.32 98.76C31.34 103.04 35.58 107.75 36.28 113.59Z" />
			<path id="Trazado 251" class="shp2" d="M216.25 89.98C216.45 92.99 216.19 96.01 215.5 98.94C214.29 103.08 211.39 106.5 208.47 109.66C205.36 113.04 202.13 116.3 198.9 119.56C193.86 110.27 194.19 98.98 199.78 90C201.77 87.12 203.96 84.39 206.35 81.83C209.79 77.84 212.98 73.65 215.93 69.28C216.04 76.18 216.15 83.08 216.25 89.98Z" />
			<path id="Trazado 252" class="shp6" d="M110.75 183.88C105.85 180.45 102.27 175.46 100.59 169.72C95 150.17 99.56 126.45 104.31 106.3C104.42 105.85 104.81 105.51 105.27 105.46C105.74 105.42 106.18 105.67 106.38 106.1C109.27 112.61 113.24 121.37 115.69 126.98C129.5 127.4 144.03 128.51 157.85 128.93C158.45 128.93 164.05 113.72 167.87 106.29C168.09 105.87 168.53 105.6 169.01 105.6C169.49 105.6 169.93 105.87 170.15 106.29C177.75 121.54 179.46 139.07 180.94 156.08C181.51 162.42 182.06 168.97 180.01 175C177.39 182.47 171.2 188.13 163.53 190.08C159.88 191.01 156.08 191.01 152.36 191.31C144.47 192.02 136.52 191.61 128.75 190.1C122.67 188.85 115.85 187.45 110.75 183.88Z" />
			<path id="Trazado 253" class="shp2" d="M162.26 135.62C162.73 135.62 163.03 136.1 163.27 136.5C164.52 138.6 165.67 140.75 166.75 142.95C160.71 143.71 154.85 145.52 149.43 148.3C151.71 142.94 156.4 139 161.37 135.91C161.63 135.72 161.94 135.62 162.26 135.62Z" />
			<path id="Trazado 254" class="shp2" d="M115.04 135.91C115.39 135.63 115.91 135.85 116.3 136.08C121.7 139.27 126.52 143.36 130.53 148.18C124.01 147.96 117.98 144.35 111.47 143.68C112.56 141.25 113.64 138.81 114.73 136.37C114.79 136.19 114.9 136.03 115.04 135.91L115.04 135.91Z" />
			<path id="Trazado 255" class="shp7" d="M120.81 277.01C123.76 278.51 126.86 280.73 127.26 284.01C115.04 288.13 102.14 289.87 89.26 289.12C88.38 289.13 87.5 288.93 86.71 288.55C85.13 287.62 84.85 285.48 84.78 283.64C84.74 280.23 85.12 276.84 85.93 273.53C85.98 273.09 86.18 272.69 86.49 272.37C86.78 272.17 87.12 272.05 87.47 272.02C98.83 270.05 110.52 271.8 120.81 277.01L120.81 277.01Z" />
			<path id="Trazado 256" class="shp7" d="M180.22 285.61C179.34 286.07 178.37 286.34 177.39 286.41L164.96 288.22C160.73 288.82 156.44 289.42 152.22 288.87C149.83 288.51 147.13 287.51 146.43 285.21C145.89 283.38 146.87 281.41 148.18 280.02C150.61 277.45 154.04 276.15 157.37 274.99C161.11 273.56 164.99 272.56 168.95 272.02C172.93 271.49 176.98 272.21 180.53 274.08C181.02 274.33 181.46 274.67 181.84 275.07C182.79 276.18 182.76 277.78 182.69 279.23C182.58 281.61 182.26 284.37 180.22 285.61L180.22 285.61Z" />
			<path id="Trazado 257" class="shp0" d="M268.07 317.22C265.27 319.08 261.73 319.08 258.39 319.08L25.53 318.29C19.12 318.26 12.47 319.76 6.3 318.01C4.77 317.56 3.49 316.52 2.75 315.11C2.27 314.03 1.95 312.88 1.82 311.7L0.76 305.51C0.36 303.48 0.1 301.42 0.01 299.35C-0.04 297.56 0.21 295.64 1.42 294.33C3.06 292.56 5.81 292.55 8.23 292.66C10.24 292.75 47.01 291.95 62.98 291.58C75.64 291.28 86.6 292.03 99.29 292.79C153.82 296.02 208.53 289.1 263.12 291.11C264.68 291.17 266.36 291.28 267.53 292.3C268.49 293.32 269.09 294.63 269.24 296.03C270.13 300.4 270.88 315.35 268.07 317.22Z" />
			<path id="Trazado 258" class="shp1" d="M74.4 294.92C71.81 293.43 72.12 287.62 75.15 287.18C88.54 285.15 138.64 285.59 170.41 283.92C173.81 283.74 180.78 283.44 183.84 284.85C186.9 286.25 186.75 292.3 184.05 292.53C162.52 294.04 116.1 294.39 82.17 295.32C80.88 295.29 75.45 295.54 74.4 294.92Z" />
			<path id="Trazado 259" class="shp5" d="M60.89 257.55C62.32 258.63 60.92 261.07 59.47 259.98C54.35 256.17 48.96 255.19 42.71 255.12C42.01 255.03 41.47 254.43 41.47 253.72C41.47 253.01 42.01 252.4 42.71 252.32C49.39 252.4 55.38 253.5 60.85 257.57L60.89 257.55Z" />
			<g id="Grupo 6" clip-path="url(#cp1)">
				<path id="Trazado 260" class="shp8" d="M96.34 280.03C95.63 279.94 95.1 279.34 95.1 278.63C95.1 277.92 95.63 277.32 96.34 277.23C106.46 277.31 118.04 277.6 126.13 284.53C127.52 285.71 125.52 287.7 124.15 286.52C116.69 280.1 105.62 280.08 96.32 280.01L96.34 280.03Z" />
			</g>
			<g id="Grupo 7" clip-path="url(#cp2)">
				<path id="Trazado 262" class="shp8" d="M175.39 276.92C177.1 277.49 176.36 280.2 174.64 279.64C165.36 276.57 152.54 280.85 146.03 287.89C144.79 289.22 142.8 287.23 144.03 285.9C151.18 278.16 165.19 273.56 175.39 276.92L175.39 276.92Z" />
			</g>
			<path id="Trazado 264" class="shp9" d="M145.99 303.26C138.36 304.5 130.58 304.57 122.93 303.48C122.11 292.43 121.29 281.37 120.48 270.33C130.1 269.13 139.8 268.79 149.47 269.32C149.77 269.3 150.08 269.39 150.33 269.56C150.6 269.9 150.7 270.35 150.6 270.77C149.71 280.97 148.78 291.16 147.8 301.34C147.81 301.85 147.65 302.34 147.35 302.74C146.96 303.06 146.49 303.24 145.99 303.26Z" />
			<path id="Trazado 265" class="shp1" d="M200.28 270.79C173.46 275.99 124.95 271.35 74.14 273.99C68.95 274.26 62.97 274.79 59.25 271.07C56.17 268.01 55.71 263.28 55.43 258.97C53.52 229.18 51.86 214.64 50.16 180.2C50.03 177.9 48.17 167.89 51.89 163C55.04 158.83 60.68 158.16 68.9 157.72L103.27 155.85C108.04 155.59 112.8 155.33 117.58 155.21C124.75 155.04 131.87 155.17 138.99 155.31L169.71 155.91C182.39 156.16 195.12 156.41 207.6 158.63C212.65 159.52 217.39 162.25 218.98 167.12C220.57 171.99 219.48 177.24 219.25 182.36C217.66 218.35 217.39 247.32 215.89 261.57C215.22 267.93 209 269.11 200.28 270.79Z" />
			<path id="Trazado 266" class="shp0" d="M113.78 191.51C113.65 190.94 113.72 190.34 113.97 189.81C114.45 189.04 115.48 188.97 116.41 188.97L146.29 189.05C149.74 189.05 154.01 189.05 155.19 189.98C157.07 191.48 156.7 195.86 155.95 198.45C155.83 198.96 155.95 202.08 152.23 202.35C141.74 203.1 116.61 202.4 115.68 201.65C114.93 200.89 114.53 199.86 114.55 198.8C114.27 196.36 114.01 193.93 113.78 191.51Z" />
			<path id="Trazado 267" class="shp9" d="M156.5 299.92C158.49 300.44 160.12 306.23 158.17 306.91C150.73 309.54 112.31 308.7 110.58 307.66C108.85 306.63 108.61 303.24 109.75 301.57C115.4 300.75 121.1 300.35 126.8 300.39L155.38 299.84C155.76 299.81 156.13 299.84 156.5 299.92Z" />
			<path id="Trazado 268" class="shp10" d="M62.42 161.26C61.71 161.18 61.18 160.58 61.18 159.87C61.18 159.15 61.71 158.55 62.42 158.47C75.93 158.36 89.2 156.09 102.67 155.4C116.14 154.71 129.54 154.22 143.14 153.98C156.74 153.75 170.38 153.9 183.95 154.91C192.06 155.49 202.75 154.63 209.86 159.21C211.37 160.19 209.97 162.62 208.44 161.64C203.89 158.73 198.69 158.93 193.55 158.52C187.49 158.05 181.46 157.49 175.39 157.21C162.48 156.64 149.57 156.54 136.65 156.93C123.97 157.33 111.16 157.46 98.48 158.46C86.44 159.39 74.52 161.15 62.42 161.25L62.42 161.26Z" />
			<path id="Trazado 269" class="shp0" d="M80.07 286.91C80.07 286.19 80.61 285.59 81.32 285.51L83.57 285.51C84.28 285.59 84.82 286.19 84.82 286.91C84.82 287.62 84.28 288.22 83.57 288.3L81.32 288.3C80.61 288.22 80.07 287.62 80.07 286.91Z" />
			<path id="Trazado 270" class="shp0" d="M92.56 285.15C93.95 285.2 95.33 285.08 96.69 284.8C98.46 284.49 99.22 287.2 97.43 287.51C95.83 287.85 94.2 288 92.56 287.94C90.77 287.82 90.7 285.01 92.56 285.15Z" />
			<path id="Trazado 271" class="shp0" d="M104.06 285.78C104.06 285.07 104.6 284.46 105.31 284.38L110.55 284.38C111.26 284.46 111.79 285.07 111.79 285.78C111.79 286.49 111.26 287.09 110.55 287.18L105.31 287.18C104.6 287.09 104.06 286.49 104.06 285.78Z" />
			<path id="Trazado 272" class="shp0" d="M152.03 285.78C152.03 285.07 152.57 284.46 153.28 284.38L157.37 284.38C158.08 284.46 158.62 285.07 158.62 285.78C158.62 286.49 158.08 287.09 157.37 287.18L153.28 287.18C152.57 287.09 152.03 286.49 152.03 285.78Z" />
			<path id="Trazado 273" class="shp0" d="M162.15 285.41C162.15 284.69 162.69 284.09 163.4 284.01L167.89 284.01C168.6 284.09 169.14 284.69 169.14 285.41C169.14 286.12 168.6 286.72 167.89 286.8L163.4 286.8C162.69 286.72 162.15 286.12 162.15 285.41Z" />
			<path id="Trazado 274" class="shp0" d="M173.89 286.43C173.18 286.35 172.64 285.75 172.64 285.03C172.64 284.32 173.18 283.72 173.89 283.64L177.27 283.64C177.98 283.72 178.51 284.32 178.51 285.03C178.51 285.75 177.98 286.35 177.27 286.43L173.89 286.43L173.89 286.43Z" />
			<path id="Trazado 275" class="shp10" d="M119.76 132.61C119.05 132.53 118.51 131.93 118.51 131.21C118.51 130.5 119.05 129.9 119.76 129.82C124.07 129.82 128.38 130.04 132.69 130.38C134.48 130.51 134.49 133.32 132.69 133.17C128.38 132.83 124.07 132.61 119.76 132.61L119.76 132.61Z" />
			<path id="Trazado 276" class="shp10" d="M107.37 113.66C108.09 113.66 108.69 114.2 108.77 114.9L108.77 115.46C108.69 116.17 108.09 116.71 107.37 116.71C106.66 116.71 106.06 116.17 105.98 115.46L105.98 114.9C106.06 114.2 106.66 113.66 107.37 113.66Z" />
		</g>
	</g>
</svg>